<svg width="22" height="22" viewBox="0 0 22 22" fill="none" xmlns="http://www.w3.org/2000/svg">
<path d="M7.27083 1.6875C7.27083 1.3078 6.96303 1 6.58333 1C6.20364 1 5.89583 1.3078 5.89583 1.6875V3.13515C4.57645 3.2408 3.71029 3.50009 3.07394 4.13644C2.43759 4.77279 2.1783 5.63895 2.07265 6.95833H20.2607C20.155 5.63895 19.8957 4.77279 19.2594 4.13644C18.623 3.50009 17.7569 3.2408 16.4375 3.13515V1.6875C16.4375 1.3078 16.1297 1 15.75 1C15.3703 1 15.0625 1.3078 15.0625 1.6875V3.07433C14.4527 3.0625 13.7691 3.0625 13 3.0625H9.33333C8.56422 3.0625 7.88066 3.0625 7.27083 3.07433V1.6875Z" fill="white"/>
<path fill-rule="evenodd" clip-rule="evenodd" d="M20.3333 10.3958V12.2292C20.3333 15.6861 20.3333 17.4146 19.2594 18.4886C18.1854 19.5625 16.457 19.5625 13 19.5625H9.33333C5.87637 19.5625 4.14788 19.5625 3.07394 18.4886C2 17.4146 2 15.6861 2 12.2292V10.3958C2 9.62672 2 8.94316 2.01183 8.33333H20.3215C20.3333 8.94316 20.3333 9.62672 20.3333 10.3958ZM14.8333 11.5417C15.213 11.5417 15.5208 11.8495 15.5208 12.2292V13.375L16.6667 13.375C17.0464 13.375 17.3542 13.6828 17.3542 14.0625C17.3542 14.4422 17.0464 14.75 16.6667 14.75H15.5208V15.8958C15.5208 16.2755 15.213 16.5833 14.8333 16.5833C14.4536 16.5833 14.1458 16.2755 14.1458 15.8958V14.75L13 14.75C12.6203 14.75 12.3125 14.4422 12.3125 14.0625C12.3125 13.6828 12.6203 13.375 13 13.375H14.1458V12.2292C14.1458 11.8495 14.4536 11.5417 14.8333 11.5417Z" fill="white"/>
</svg>
