<svg width="15" height="15" viewBox="0 0 15 15" fill="none" xmlns="http://www.w3.org/2000/svg">
<path d="M5.53446 1.20649L6.12939 2.27251C6.66628 3.23453 6.45075 4.49655 5.60515 5.34215C5.60515 5.34215 4.57946 6.36785 6.43914 8.22753C8.29879 10.0872 9.32451 9.06152 9.32451 9.06152C10.1701 8.21592 11.4321 8.00039 12.3942 8.53728L13.4602 9.13221C14.9128 9.94292 15.0844 11.9801 13.8075 13.257C13.0403 14.0243 12.1004 14.6213 11.0613 14.6607C9.31221 14.727 6.34175 14.2843 3.36206 11.3046C0.382367 8.32491 -0.0603033 5.35445 0.00600568 3.60533C0.0453951 2.5663 0.642403 1.62638 1.40966 0.859129C2.68653 -0.417742 4.72374 -0.246183 5.53446 1.20649Z" fill="#3B2E63"/>
</svg>
