<svg width="30" height="30" viewBox="0 0 30 30" fill="none" xmlns="http://www.w3.org/2000/svg">
<circle cx="15" cy="15" r="14" stroke="#3B2E63" stroke-width="2"/>
<path d="M19.6159 12.2982C19.9361 11.9645 20.2314 11.647 20.5383 11.341C20.9553 10.9251 21.4118 10.8899 21.7654 11.2339C22.1015 11.561 22.0748 12.0701 21.6958 12.4547C19.2715 14.915 16.8467 17.3748 14.4207 19.8334C13.9875 20.2724 13.4326 20.2997 13.0122 19.8798C11.7654 18.6345 10.524 17.3839 9.29118 16.1251C8.82433 15.6484 8.93673 15.0044 9.50046 14.7985C9.89196 14.6555 10.1733 14.8422 10.4346 15.106C11.3794 16.0598 12.3281 17.0098 13.2765 17.9602C13.6585 18.3429 13.6892 18.3473 14.077 17.9523C15.9187 16.0766 17.7568 14.1974 19.6159 12.2982Z" fill="#CD464B"/>
</svg>
