<svg width="44" height="44" viewBox="0 0 44 44" fill="none" xmlns="http://www.w3.org/2000/svg">
<path fill-rule="evenodd" clip-rule="evenodd" d="M5.81451 9.48114C3.66663 11.629 3.66663 15.086 3.66663 21.9999C3.66663 28.9139 3.66663 32.3708 5.81451 34.5187C7.96239 36.6666 11.4194 36.6666 18.3333 36.6666H25.6666C32.5806 36.6666 36.0375 36.6666 38.1854 34.5187C40.3333 32.3708 40.3333 28.9139 40.3333 21.9999C40.3333 15.086 40.3333 11.629 38.1854 9.48114C36.0375 7.33325 32.5806 7.33325 25.6666 7.33325H18.3333C11.4194 7.33325 7.96239 7.33325 5.81451 9.48114ZM34.0563 13.7863C34.5424 14.3697 34.4636 15.2367 33.8802 15.7229L29.8533 19.0786C28.2283 20.4328 26.9112 21.5304 25.7488 22.2781C24.5379 23.0569 23.3586 23.5489 22 23.5489C20.6413 23.5489 19.462 23.0569 18.2511 22.2781C17.0887 21.5304 15.7716 20.4328 14.1466 19.0786L10.1197 15.7229C9.53632 15.2367 9.4575 14.3697 9.94365 13.7863C10.4298 13.203 11.2968 13.1241 11.8802 13.6103L15.8382 16.9086C17.5486 18.3339 18.7361 19.3203 19.7387 19.9652C20.7092 20.5893 21.3673 20.7989 22 20.7989C22.6326 20.7989 23.2907 20.5893 24.2612 19.9652C25.2638 19.3203 26.4513 18.3339 28.1617 16.9086L32.1197 13.6103C32.7031 13.1241 33.5701 13.203 34.0563 13.7863Z" fill="white"/>
</svg>
