<svg width="173" height="164" viewBox="0 0 173 164" fill="none" xmlns="http://www.w3.org/2000/svg">
<path d="M109.649 52.9001C114.288 55.3563 113.508 54.2522 112.358 58.8067C111.833 60.8874 112.381 61.865 113.892 63.2695C116.092 65.3138 117.85 65.4203 120.328 63.8888C122.845 62.3336 122.999 62.518 124.96 64.8485C126.048 66.141 127.005 67.5429 128.067 68.8576C128.657 69.5875 128.537 70.1354 127.948 70.8073C126.998 71.891 126.162 73.0735 125.239 74.1827C124.693 74.8399 124.577 75.4752 125.029 76.2251C125.311 76.6922 125.627 77.1755 125.753 77.6941C126.453 80.5687 128.332 81.1001 131.054 80.933C134.593 80.7159 133.87 80.3217 134.866 83.7889C135.344 85.4548 135.546 87.1983 135.943 88.8904C136.146 89.7591 135.795 90.1845 135.061 90.5104C133.879 91.035 132.747 91.6845 131.54 92.1364C130.379 92.571 129.965 93.2507 130.026 94.5006C130.169 97.4299 130.112 97.4314 127.244 97.4281C123.053 97.4234 119.323 98.6597 116.196 101.53C115.952 101.755 115.721 102.065 115.096 101.902C117.046 89.87 113.203 80.0974 103.043 73.1712C97.3467 69.2884 90.8826 68.0875 84.0824 69.1365C70.8641 71.1754 58.3688 84.232 61.6136 101.891C61.141 102.196 60.8848 101.789 60.6166 101.55C57.1164 98.4389 52.9937 97.1307 48.3759 97.4853C46.8871 97.5996 46.4095 97.0257 46.6903 95.747C47.2049 93.4031 46.1382 92.3405 44.0367 91.5097C40.6906 90.1869 40.7434 90.0424 41.2624 86.5678C41.4981 84.9894 41.977 83.4719 42.4145 81.9417C42.6507 81.1153 43.1238 80.8353 43.9325 80.8528C45.3748 80.884 46.8191 80.8339 48.2608 80.8772C49.12 80.903 49.6818 80.597 49.9958 79.7848C50.2107 79.229 50.3958 78.6216 50.7591 78.1702C52.544 75.9526 51.8526 74.2449 50.0928 72.2867C47.4285 69.3217 47.7505 70.3255 49.9203 67.1849C50.8214 65.8806 51.953 64.738 52.9329 63.4852C53.5847 62.652 54.2323 62.64 55.1186 63.1408C56.3718 63.8489 57.7112 64.4022 58.9898 65.0678C59.7153 65.4454 60.2755 65.3426 60.8742 64.7958C61.6812 64.0587 62.4867 63.2752 63.4212 62.7331C64.8132 61.9255 64.9999 60.8911 64.5369 59.4801C64.166 58.3497 63.9697 57.1632 63.6563 56.0124C63.4381 55.2115 63.6772 54.6962 64.4109 54.3023C66.5167 53.1719 68.6526 52.1127 70.8696 51.214C71.6078 50.9147 72.0653 51.1106 72.5147 51.7266C73.3943 52.9324 74.3624 54.0737 75.2365 55.2833C75.7502 55.9941 76.337 56.1983 77.165 55.9517C78.0689 55.6824 78.9874 55.3149 79.9095 55.2838C81.9381 55.2155 82.4318 54.0237 82.8571 52.276C84.0789 47.2555 82.7288 48.1468 88.0901 48.0057C89.2334 47.9756 90.3814 48.0776 91.5221 48.0185C92.7232 47.9563 93.1981 48.5467 93.3873 49.644C93.6233 51.0136 94.0292 52.3554 94.2343 53.7283C94.3641 54.5973 94.8349 54.8852 95.5902 55.0329C96.9062 55.2902 98.2301 55.5342 99.5182 55.899C100.431 56.1576 101.031 55.9197 101.572 55.1867C102.428 54.0261 103.367 52.9259 104.213 51.7575C104.712 51.0671 105.249 50.9367 106.001 51.2852C107.173 51.8288 108.366 52.3299 109.649 52.9001Z" fill="#3B2E63"/>
<path d="M128.376 129.882C124.018 130.183 120.124 129.349 116.765 126.563C115.672 125.657 114.691 124.639 113.989 123.419C113.345 122.301 112.475 121.937 111.28 121.951C109.041 121.978 106.801 121.938 104.561 121.937C91.5696 121.932 78.5783 121.966 65.5875 121.889C63.7495 121.878 62.6118 122.439 61.5242 123.973C55.5824 132.354 42.0239 131.897 36.6151 123.208C36.3567 122.793 35.9831 122.416 36.0209 121.829C36.4287 121.301 37.0208 121.527 37.5278 121.521C40.4642 121.49 43.4011 121.476 46.3376 121.494C47.9089 121.504 48.9594 121.013 49.7016 119.398C51.9004 114.612 51.9375 114.669 49.7193 109.696C49.0559 108.209 48.211 107.595 46.5457 107.674C43.4667 107.821 40.3755 107.729 37.2898 107.693C35.8425 107.677 35.6917 107.341 36.4477 106.081C40.8079 98.8181 49.9455 97.1202 57.0575 101.089C59.2237 102.298 61.0102 103.975 62.3372 106.106C62.8476 106.925 63.5059 107.241 64.4435 107.238C79.3252 107.195 94.2069 107.171 109.089 107.145C109.486 107.144 109.884 107.167 110.28 107.201C111.92 107.341 113.072 106.867 114.151 105.361C120.443 96.5734 134.323 97.0219 139.54 106.082C139.76 106.464 140.07 106.816 139.986 107.31C139.443 107.887 138.758 107.708 138.138 107.711C135.102 107.728 132.065 107.763 129.03 107.686C127.776 107.654 127.057 108.055 126.486 109.243C123.781 114.868 123.762 114.843 126.703 120.314C127.258 121.347 128.124 121.48 129.094 121.484C132.03 121.496 134.967 121.484 137.904 121.504C138.537 121.508 139.194 121.377 139.799 121.687C139.577 124.599 134.388 129.346 128.376 129.882Z" fill="#CD4550"/>
<path d="M22.8816 114.002C18.3618 116.835 13.9327 119.611 9.49863 122.379C8.58116 122.952 7.62764 123.318 6.60362 122.611C5.78264 122.044 5.52487 121.236 5.66465 120.283C5.81406 119.264 6.66566 118.87 7.41041 118.408C10.5117 116.486 13.6257 114.584 16.7313 112.669C17.1897 112.386 17.6279 112.07 18.2731 111.638C15.837 110.886 13.4968 110.718 11.212 110.289C10.438 110.144 9.65132 110.064 8.87989 109.907C7.94107 109.717 7.26272 109.221 7.05025 108.216C6.8484 107.261 7.26625 106.588 7.99865 106.064C10.4412 104.316 12.8915 102.579 15.6206 100.637C13.3986 100.02 11.3944 100.164 9.44846 99.9336C7.00403 99.6446 4.54014 99.5237 2.08927 99.2834C0.61165 99.1385 -0.0821764 98.31 0.00773625 96.9415C0.0910981 95.6727 0.855871 94.9096 2.29869 95.0086C6.47577 95.2953 10.6459 95.683 14.8184 96.0363C16.7321 96.1984 18.6472 96.3507 20.5571 96.5507C21.5932 96.6592 22.6711 96.7786 22.9853 98.0698C23.2857 99.304 22.7119 100.122 21.7601 100.833C19.2769 102.688 16.8245 104.585 14.3705 106.456C14.6042 107.081 15.0828 107.06 15.4967 107.137C18.1616 107.632 20.8265 108.128 23.4941 108.609C24.608 108.81 25.6592 109.111 25.9387 110.393C26.2333 111.745 25.4281 112.498 24.3515 113.081C23.8755 113.339 23.4299 113.653 22.8816 114.002Z" fill="#3B2E63"/>
<path d="M75.2843 8.83823C76.2424 11.279 77.1553 13.6133 78.1196 16.0793C78.6588 15.6258 78.7193 15.0559 78.8821 14.574C79.7027 12.1452 80.4941 9.70569 81.2979 7.27068C81.628 6.27069 82.0687 5.41501 83.2594 5.35724C84.4984 5.29712 85.0464 6.12028 85.5065 7.13544C86.7012 9.77096 87.9182 12.3954 89.2754 15.349C90.2768 12.4739 90.7543 9.81395 91.4339 7.21749C91.9053 5.4161 92.3097 3.59501 92.8004 1.79963C93.192 0.366505 94.1854 -0.247627 95.3971 0.0910556C96.647 0.440426 97.2619 1.61162 96.8946 3.05474C95.3422 9.15263 93.7671 15.2442 92.2171 21.3427C91.9708 22.312 91.5076 22.9956 90.5055 23.1292C89.4541 23.2693 88.7429 22.7323 88.2749 21.8057C87.1016 19.4825 85.9491 17.1478 84.7827 14.8207C84.4495 14.156 84.0976 13.5015 83.7053 12.7483C83.151 13.1638 83.0953 13.7373 82.9242 14.2202C82.0009 16.8255 81.0949 19.4376 80.1869 22.0488C79.8177 23.1106 79.2637 23.998 78.0628 24C76.8705 24.002 76.3526 23.1451 75.9357 22.0743C73.7678 16.506 71.5505 10.9588 69.3523 5.40347C69.2602 5.17062 69.1712 4.93415 69.1072 4.6917C68.7645 3.39495 69.2607 2.26351 70.3499 1.83844C71.4879 1.39431 72.5369 1.84208 73.0616 3.11493C73.8261 4.96965 74.5169 6.85779 75.2843 8.83823Z" fill="#3B2E63"/>
<path d="M33.7839 46.5058C35.9611 44.2283 35.8852 42.6872 33.5389 40.7175C31.648 39.1301 29.7126 37.5973 27.8191 36.0131C26.9544 35.2897 26.3865 34.4096 26.944 33.2187C27.6034 31.8105 29.0406 31.5861 30.4815 32.7371C33.0788 34.812 35.6405 36.9331 38.2073 39.0471C39.3347 39.9756 40.4981 40.8707 41.541 41.8908C44.2662 44.5563 44.7169 47.4956 42.9396 50.8777C41.9599 52.7421 40.6292 54.3319 38.8557 55.4732C37.4212 56.3964 35.9377 56.0731 35.4051 54.763C34.8781 53.4669 35.4678 52.5914 36.5677 52.0085C37.9541 51.2738 38.9847 50.2104 39.6306 48.7739C40.2764 47.3378 39.9717 46.255 38.593 45.1582C37.9865 46.5979 37.6962 48.1467 36.684 49.3889C34.6373 51.9007 31.7705 52.5692 29.0677 50.7956C26.0803 48.8353 23.4393 46.391 20.7188 44.0709C19.7825 43.2724 19.7846 42.1515 20.5871 41.2072C21.4538 40.1874 22.5323 40.2001 23.5349 40.9936C25.6279 42.6502 27.6684 44.3751 29.7526 46.0435C30.9479 47.0005 32.2124 47.6994 33.7839 46.5058Z" fill="#3B2E63"/>
<path d="M167.154 111.428C168.796 117.032 163.549 122.011 158.092 120.823C154.697 120.084 152.007 118.473 150.737 114.925C149.634 111.843 150.371 109.149 152.525 106.829C152.727 106.611 152.94 106.404 153.143 106.187C153.175 106.154 153.184 106.097 153.25 105.942C151.923 104.992 150.295 104.849 148.841 104.248C148.043 103.918 147.309 103.572 147.078 102.616C146.644 100.828 148.084 99.5562 149.96 100.146C152.324 100.889 154.66 101.731 157.011 102.52C160.376 103.65 163.742 104.777 167.111 105.892C168.098 106.219 168.923 106.723 168.995 107.924C169.061 109.027 168.462 109.769 167.528 110.134C166.854 110.397 166.931 110.805 167.154 111.428ZM155.136 114.762C156.015 115.872 157.209 116.418 158.495 116.747C160.627 117.291 162.756 116.148 163.611 114.058C164.392 112.148 163.723 110.001 161.94 108.748C161.25 108.263 160.487 107.961 159.672 107.771C157.806 107.337 156.193 107.755 154.997 109.366C153.819 110.954 153.859 112.642 155.136 114.762Z" fill="#3B2E63"/>
<path d="M6.07639 78.4386C6.3252 76.771 7.10236 75.5019 7.97055 74.3631C7.97037 73.9198 7.66332 73.7839 7.47853 73.5671C6.81446 72.7882 6.74802 71.9399 7.22102 71.0573C7.6753 70.2096 8.43614 69.902 9.33105 70.0266C13.5843 70.6189 17.8357 71.2247 22.0847 71.8485C23.0162 71.9852 23.7641 72.4423 23.9495 73.4901C24.175 74.7642 23.6431 75.6332 22.393 76.1191C24.1022 79.8891 23.8832 83.3499 20.6678 86.0777C17.7722 88.5343 13.3282 88.6004 9.76125 86.482C7.06775 84.8823 5.64438 81.8505 6.07639 78.4386ZM12.2539 75.3834C9.72107 77.0031 9.05795 79.7756 10.6997 81.8816C12.272 83.8985 15.4566 84.5068 17.6247 83.2045C20.1895 81.6638 20.4644 78.1306 18.143 76.2142C16.4347 74.8039 14.5028 74.6631 12.2539 75.3834Z" fill="#3B2E63"/>
<path d="M152.066 63.247C158 61.5566 163.819 59.8962 169.638 58.2376C169.926 58.1555 170.215 58.0532 170.51 58.0225C171.682 57.9005 172.591 58.2568 172.929 59.5312C173.222 60.6394 172.594 61.7266 171.394 62.1221C170.444 62.4347 169.473 62.6764 168.513 62.9546C167.562 63.2302 166.613 63.5122 165.436 63.858C167.335 65.073 168.618 66.5053 169.031 68.656C169.509 71.1417 168.759 73.0637 166.611 74.359C165.351 75.1194 163.973 75.556 162.57 75.9433C160.304 76.5686 158.052 77.2437 155.786 77.8663C154.365 78.2568 153.381 77.7805 153.005 76.589C152.61 75.3365 153.185 74.2649 154.625 73.8188C157.347 72.975 160.102 72.2358 162.82 71.3786C164.041 70.9938 164.949 70.2078 164.904 68.733C164.858 67.2375 164.244 66.0483 162.881 65.4207C161.935 64.9851 160.922 65.1303 159.941 65.4109C157.73 66.0435 155.518 66.6725 153.31 67.3153C151.6 67.8132 150.574 67.4152 150.14 66.0602C149.721 64.7566 150.208 64.0078 152.066 63.247Z" fill="#3B2E63"/>
<path d="M146.101 22.5264C147.322 21.7289 148.4 21.8252 149.183 22.8999C149.975 23.9879 149.58 25.0534 148.696 25.9282C146.547 28.0547 144.37 30.1537 142.212 32.2711C141.823 32.653 141.469 33.07 141.098 33.4708C141.134 33.6169 141.17 33.763 141.207 33.9091C143.645 33.9091 146.084 33.8957 148.522 33.9179C149.185 33.9239 149.871 33.9519 150.505 34.1202C151.592 34.408 152.12 35.1872 151.977 36.3115C151.841 37.3791 151.151 37.986 150.096 37.9717C148.456 37.9494 146.813 37.8518 145.179 37.6995C143.915 37.5817 143.274 37.9197 143.275 39.3262C143.276 41.2643 143.127 43.2039 143.001 45.1401C142.937 46.1133 142.835 47.1273 141.875 47.6986C140.395 48.5787 138.646 47.4356 138.648 45.5122C138.649 43.3179 138.814 41.1242 138.872 38.9293C138.886 38.4043 139.094 37.7025 138.36 37.4837C137.709 37.2899 137.035 37.34 136.498 37.8833C135.957 38.4299 135.418 38.9793 134.85 39.4961C133.676 40.5632 132.511 40.5964 131.597 39.6176C130.742 38.7019 130.786 37.5624 131.857 36.4906C135.083 33.2655 138.342 30.0743 141.595 26.8771C143.057 25.4403 144.536 24.0205 146.101 22.5264Z" fill="#3B2E63"/>
<path d="M162.671 99C159.04 98.6771 156.27 97.1817 154.777 93.8106C153.192 90.2317 153.917 84.8452 158.014 82.333C161.915 79.9406 167.485 80.8544 170.17 84.3855C172.908 87.9879 172.543 93.4237 169.28 96.5477C167.482 98.2694 165.248 98.9607 162.671 99ZM167.458 92.3054C168.93 89.088 167.413 86.0138 164.023 85.3424C161.327 84.8086 158.72 86.2862 158.037 88.7347C157.379 91.0922 158.612 93.4364 160.998 94.3633C163.24 95.2343 165.602 94.541 167.458 92.3054Z" fill="#3B2E63"/>
<path d="M111.78 9.08732C116.129 10.1493 118.606 12.9496 118.968 17.1027C119.29 20.8054 117.163 24.7355 114.019 26.2417C110.867 27.7522 106.642 26.9423 104.306 24.3797C101.806 21.6366 101.29 17.494 102.997 13.8704C104.634 10.3963 107.931 8.5673 111.78 9.08732ZM107.336 21.8402C110.04 24.0357 113.102 23.2342 114.5 19.965C115.418 17.8172 115.019 15.4376 113.506 14.0515C112.041 12.7085 110.112 12.5496 108.452 13.5566C106.192 14.9269 104.923 19.2412 107.336 21.8402Z" fill="#3B2E63"/>
<path d="M44.3153 26.6571C41.5036 24.39 41.2334 21.358 43.611 18.8482C45.702 16.641 48.2765 15.5697 51.418 16.1607C52.5965 16.3824 53.5294 16.9666 53.3431 18.2729C53.1531 19.6047 52.0824 19.879 50.8833 19.7252C49.4363 19.5396 48.0856 19.6858 46.9231 20.6149C46.3148 21.1011 45.6754 21.6293 46.0988 22.5093C46.5089 23.3621 47.3209 23.5909 48.196 23.4248C49.5652 23.1648 50.9063 22.7658 52.276 22.5082C55.0418 21.9879 56.9697 22.6656 58.1408 24.4958C59.4353 26.5188 59.3142 28.6474 57.4555 30.7285C55.178 33.2786 52.2097 34.4091 48.7148 33.8672C47.0705 33.6122 46.2298 32.6249 46.4331 31.5166C46.6496 30.3359 47.6496 29.8114 49.3593 30.0961C51.1864 30.4004 52.8694 30.2087 54.3277 29.0161C54.9623 28.4971 55.3983 27.8525 54.9883 27.0412C54.5689 26.2114 53.7747 25.9754 52.8822 26.1638C51.4667 26.4625 50.0722 26.8591 48.6511 27.1264C47.2144 27.3967 45.7654 27.4741 44.3153 26.6571Z" fill="#3B2E63"/>
<path d="M150.812 45.631C152.779 42.4067 155.979 42.1038 158.624 44.9555C160.551 47.033 161.434 49.6277 160.793 52.6233C160.552 53.7519 159.954 54.7104 158.699 54.409C157.554 54.1342 157.291 53.178 157.474 51.9947C157.698 50.5563 157.508 49.1885 156.721 47.9819C156.286 47.316 155.729 46.8217 154.91 47.1294C154.085 47.4394 153.878 48.2095 153.998 49.0211C154.256 50.7601 154.646 52.4755 154.906 54.2143C155.209 56.2382 154.608 57.9223 153.049 59.0909C151.443 60.2938 149.742 60.2563 148.077 59.2535C145.253 57.5536 143.485 53.2535 144.134 49.7859C144.459 48.0496 145.179 47.2676 146.289 47.4462C147.438 47.6311 147.963 48.5525 147.656 50.3482C147.36 52.0865 147.514 53.6626 148.473 55.0821C148.92 55.7421 149.432 56.477 150.338 56.1622C151.306 55.8261 151.429 54.9016 151.301 53.9933C151.099 52.5603 150.772 51.149 150.527 49.7226C150.296 48.3789 150.249 47.0381 150.812 45.631Z" fill="#3B2E63"/>
<path d="M13.6402 64.065C10.9865 63.1156 8.44494 62.2056 5.90793 61.2831C4.2917 60.6954 3.67313 59.6124 4.16425 58.2713C4.60746 57.061 5.75414 56.6852 7.36519 57.2721C13.2997 59.4341 19.2307 61.6055 25.1593 63.7834C26.6656 64.3367 27.3061 65.4562 26.8613 66.6794C26.4337 67.8552 25.3064 68.3133 23.7981 67.7779C20.438 66.5853 17.1008 65.3293 13.6402 64.065Z" fill="#3B2E63"/>
<path d="M23.5062 53.2447C25.2391 54.1689 26.8811 55.0318 28.505 55.9285C29.8654 56.6797 30.3041 57.7074 29.7935 58.8243C29.2546 60.003 28.079 60.349 26.6775 59.617C21.2696 56.7926 15.8733 53.9448 10.4866 51.0785C9.12567 50.3543 8.68529 49.1823 9.22278 48.0315C9.74029 46.9235 10.8963 46.6788 12.3709 47.4404C16.0573 49.3444 19.7295 51.2769 23.5062 53.2447Z" fill="#3B2E63"/>
<path d="M136.977 22.9833C135.828 24.8055 134.665 24.9823 133.226 23.664C131.36 21.9555 129.673 21.9745 127.898 23.8482C126.439 25.3879 125.553 27.3017 124.337 29.0042C123.903 29.6125 123.546 30.2697 123.106 30.8739C122.289 31.9963 121.082 32.3012 120.026 31.6914C118.966 31.0794 118.666 29.9305 119.416 28.7342C120.867 26.4183 122.4 24.148 123.898 21.8584C124.552 20.8593 125.212 19.8634 125.855 18.8582C126.511 17.8325 127.147 16.789 128.714 17.037C130.217 17.275 130.447 18.396 130.597 19.6649C132.253 19.5068 133.831 19.5879 135.282 20.3403C136.348 20.8934 137.148 21.594 136.977 22.9833Z" fill="#3B2E63"/>
<path d="M33.6486 21C34.9937 22.1768 35.1063 23.8834 35.8094 25.2912C36.2668 26.2072 36.602 27.1943 36.9127 28.1754C37.1291 28.8587 36.9525 29.5069 36.2787 29.8673C35.5748 30.2438 35.1366 29.7498 34.7737 29.2517C33.7014 27.7798 32.6409 26.2983 31.6057 24.7992C30.2937 22.8996 31.1754 21.1747 33.6486 21Z" fill="#3B2E63"/>
<rect x="62" y="113" width="53" height="4" rx="2" fill="#3B2E63"/>
<path d="M24.984 144.8C25.0587 144.8 25.1333 144.816 25.208 144.848C25.2933 144.88 25.3627 144.933 25.416 145.008L29.832 151.632L29.4 151.616L33.832 145.008C33.9493 144.848 34.0933 144.779 34.264 144.8C34.392 144.8 34.4987 144.848 34.584 144.944C34.68 145.029 34.728 145.141 34.728 145.28V155.52C34.728 155.648 34.68 155.76 34.584 155.856C34.488 155.952 34.3707 156 34.232 156C34.0827 156 33.96 155.952 33.864 155.856C33.768 155.76 33.72 155.648 33.72 155.52V146.256L34.008 146.288L29.96 152.416C29.928 152.48 29.88 152.533 29.816 152.576C29.752 152.608 29.6773 152.619 29.592 152.608C29.5173 152.619 29.4427 152.608 29.368 152.576C29.304 152.533 29.2507 152.48 29.208 152.416L25.144 146.224L25.448 146.016V155.52C25.448 155.648 25.4 155.76 25.304 155.856C25.2187 155.952 25.1067 156 24.968 156C24.8293 156 24.7173 155.952 24.632 155.856C24.5467 155.76 24.504 155.648 24.504 155.52V145.28C24.504 145.152 24.5467 145.04 24.632 144.944C24.728 144.848 24.8453 144.8 24.984 144.8ZM45.1144 151.904C45.1144 152.715 44.9384 153.445 44.5864 154.096C44.2344 154.736 43.7544 155.243 43.1464 155.616C42.5384 155.979 41.845 156.16 41.0664 156.16C40.309 156.16 39.621 155.979 39.0024 155.616C38.3944 155.243 37.909 154.736 37.5464 154.096C37.1944 153.445 37.0184 152.715 37.0184 151.904C37.0184 151.083 37.1944 150.352 37.5464 149.712C37.909 149.072 38.3944 148.565 39.0024 148.192C39.621 147.819 40.309 147.632 41.0664 147.632C41.845 147.632 42.5384 147.819 43.1464 148.192C43.7544 148.565 44.2344 149.072 44.5864 149.712C44.9384 150.352 45.1144 151.083 45.1144 151.904ZM44.1544 151.904C44.1544 151.253 44.021 150.677 43.7544 150.176C43.4877 149.664 43.1197 149.264 42.6504 148.976C42.1917 148.677 41.6637 148.528 41.0664 148.528C40.4904 148.528 39.9677 148.677 39.4984 148.976C39.029 149.264 38.6557 149.664 38.3784 150.176C38.1117 150.677 37.9784 151.253 37.9784 151.904C37.9784 152.555 38.1117 153.131 38.3784 153.632C38.6557 154.133 39.029 154.533 39.4984 154.832C39.9677 155.12 40.4904 155.264 41.0664 155.264C41.6637 155.264 42.1917 155.12 42.6504 154.832C43.1197 154.533 43.4877 154.133 43.7544 153.632C44.021 153.131 44.1544 152.555 44.1544 151.904ZM51.0426 147.632C51.768 147.632 52.408 147.813 52.9626 148.176C53.528 148.539 53.976 149.04 54.3066 149.68C54.6373 150.309 54.8026 151.04 54.8026 151.872C54.8026 152.683 54.6373 153.413 54.3066 154.064C53.976 154.715 53.528 155.227 52.9626 155.6C52.3973 155.973 51.7626 156.16 51.0586 156.16C50.6853 156.16 50.328 156.101 49.9866 155.984C49.656 155.867 49.352 155.712 49.0746 155.52C48.7973 155.317 48.552 155.083 48.3386 154.816C48.1253 154.549 47.9546 154.261 47.8266 153.952L48.1146 153.744V155.552C48.1146 155.691 48.0666 155.808 47.9706 155.904C47.8853 155.989 47.7733 156.032 47.6346 156.032C47.496 156.032 47.3786 155.989 47.2826 155.904C47.1973 155.808 47.1546 155.691 47.1546 155.552V144.656C47.1546 144.517 47.1973 144.405 47.2826 144.32C47.368 144.224 47.4853 144.176 47.6346 144.176C47.7733 144.176 47.8853 144.224 47.9706 144.32C48.0666 144.405 48.1146 144.517 48.1146 144.656V150.016L47.8906 149.888C47.9973 149.557 48.152 149.259 48.3546 148.992C48.568 148.715 48.8133 148.475 49.0906 148.272C49.368 148.069 49.672 147.915 50.0026 147.808C50.3333 147.691 50.68 147.632 51.0426 147.632ZM50.9626 148.528C50.3866 148.528 49.88 148.672 49.4426 148.96C49.0053 149.248 48.6586 149.643 48.4026 150.144C48.1573 150.645 48.0346 151.221 48.0346 151.872C48.0346 152.512 48.1573 153.093 48.4026 153.616C48.6586 154.128 49.0053 154.533 49.4426 154.832C49.88 155.12 50.3866 155.264 50.9626 155.264C51.528 155.264 52.024 155.115 52.4506 154.816C52.888 154.517 53.2346 154.112 53.4906 153.6C53.7466 153.077 53.8746 152.501 53.8746 151.872C53.8746 151.221 53.7466 150.645 53.4906 150.144C53.2346 149.643 52.888 149.248 52.4506 148.96C52.024 148.672 51.528 148.528 50.9626 148.528ZM57.7858 155.52C57.7858 155.648 57.7378 155.76 57.6418 155.856C57.5458 155.952 57.4338 156 57.3058 156C57.1671 156 57.0498 155.952 56.9538 155.856C56.8684 155.76 56.8258 155.648 56.8258 155.52V148.16C56.8258 148.032 56.8684 147.92 56.9538 147.824C57.0498 147.728 57.1671 147.68 57.3058 147.68C57.4444 147.68 57.5564 147.728 57.6418 147.824C57.7378 147.92 57.7858 148.032 57.7858 148.16V155.52ZM57.3058 146.608C57.0818 146.608 56.9111 146.56 56.7938 146.464C56.6871 146.357 56.6338 146.208 56.6338 146.016V145.856C56.6338 145.664 56.6924 145.52 56.8098 145.424C56.9378 145.317 57.1084 145.264 57.3218 145.264C57.5244 145.264 57.6791 145.317 57.7858 145.424C57.9031 145.52 57.9618 145.664 57.9618 145.856V146.016C57.9618 146.208 57.9031 146.357 57.7858 146.464C57.6791 146.56 57.5191 146.608 57.3058 146.608ZM61.3356 155.52C61.3356 155.648 61.2876 155.76 61.1916 155.856C61.0956 155.952 60.9836 156 60.8556 156C60.717 156 60.5996 155.952 60.5036 155.856C60.4183 155.76 60.3756 155.648 60.3756 155.52V144.64C60.3756 144.512 60.4236 144.4 60.5196 144.304C60.6156 144.208 60.7276 144.16 60.8556 144.16C60.9943 144.16 61.1063 144.208 61.1916 144.304C61.2876 144.4 61.3356 144.512 61.3356 144.64V155.52ZM67.5069 156.16C66.6855 156.16 65.9602 155.984 65.3309 155.632C64.7015 155.28 64.2109 154.789 63.8589 154.16C63.5069 153.531 63.3309 152.795 63.3309 151.952C63.3309 151.045 63.5069 150.272 63.8589 149.632C64.2215 148.992 64.6855 148.501 65.2509 148.16C65.8269 147.808 66.4349 147.632 67.0749 147.632C67.5442 147.632 67.9975 147.717 68.4349 147.888C68.8829 148.048 69.2775 148.293 69.6189 148.624C69.9709 148.944 70.2482 149.339 70.4509 149.808C70.6642 150.277 70.7815 150.821 70.8029 151.44C70.7922 151.568 70.7389 151.68 70.6429 151.776C70.5469 151.861 70.4349 151.904 70.3069 151.904H63.8909L63.6989 151.04H70.0029L69.7949 151.232V150.912C69.7522 150.411 69.5922 149.984 69.3149 149.632C69.0375 149.28 68.7015 149.013 68.3069 148.832C67.9122 148.651 67.5015 148.56 67.0749 148.56C66.7549 148.56 66.4242 148.624 66.0829 148.752C65.7522 148.88 65.4482 149.083 65.1709 149.36C64.9042 149.627 64.6855 149.973 64.5149 150.4C64.3442 150.816 64.2589 151.312 64.2589 151.888C64.2589 152.517 64.3869 153.088 64.6429 153.6C64.8989 154.112 65.2669 154.517 65.7469 154.816C66.2375 155.115 66.8189 155.264 67.4909 155.264C67.8642 155.264 68.2002 155.211 68.4989 155.104C68.7975 154.997 69.0589 154.859 69.2829 154.688C69.5069 154.507 69.6935 154.32 69.8429 154.128C69.9602 154.032 70.0775 153.984 70.1949 153.984C70.3015 153.984 70.3922 154.027 70.4669 154.112C70.5522 154.197 70.5949 154.293 70.5949 154.4C70.5949 154.528 70.5415 154.64 70.4349 154.736C70.1149 155.12 69.6989 155.456 69.1869 155.744C68.6749 156.021 68.1149 156.16 67.5069 156.16ZM77.9528 144.8C78.0274 144.8 78.1021 144.816 78.1768 144.848C78.2621 144.88 78.3314 144.933 78.3848 145.008L82.8008 151.632L82.3688 151.616L86.8008 145.008C86.9181 144.848 87.0621 144.779 87.2328 144.8C87.3608 144.8 87.4674 144.848 87.5528 144.944C87.6488 145.029 87.6968 145.141 87.6968 145.28V155.52C87.6968 155.648 87.6488 155.76 87.5528 155.856C87.4568 155.952 87.3394 156 87.2008 156C87.0514 156 86.9288 155.952 86.8328 155.856C86.7368 155.76 86.6888 155.648 86.6888 155.52V146.256L86.9768 146.288L82.9288 152.416C82.8968 152.48 82.8488 152.533 82.7848 152.576C82.7208 152.608 82.6461 152.619 82.5608 152.608C82.4861 152.619 82.4114 152.608 82.3368 152.576C82.2728 152.533 82.2194 152.48 82.1768 152.416L78.1128 146.224L78.4168 146.016V155.52C78.4168 155.648 78.3688 155.76 78.2728 155.856C78.1874 155.952 78.0754 156 77.9368 156C77.7981 156 77.6861 155.952 77.6008 155.856C77.5154 155.76 77.4728 155.648 77.4728 155.52V145.28C77.4728 145.152 77.5154 145.04 77.6008 144.944C77.6968 144.848 77.8141 144.8 77.9528 144.8ZM94.1631 156.16C93.3418 156.16 92.6165 155.984 91.9871 155.632C91.3578 155.28 90.8671 154.789 90.5151 154.16C90.1631 153.531 89.9871 152.795 89.9871 151.952C89.9871 151.045 90.1631 150.272 90.5151 149.632C90.8778 148.992 91.3418 148.501 91.9071 148.16C92.4831 147.808 93.0911 147.632 93.7311 147.632C94.2005 147.632 94.6538 147.717 95.0911 147.888C95.5391 148.048 95.9338 148.293 96.2751 148.624C96.6271 148.944 96.9045 149.339 97.1071 149.808C97.3205 150.277 97.4378 150.821 97.4591 151.44C97.4485 151.568 97.3951 151.68 97.2991 151.776C97.2031 151.861 97.0911 151.904 96.9631 151.904H90.5471L90.3551 151.04H96.6591L96.4511 151.232V150.912C96.4085 150.411 96.2485 149.984 95.9711 149.632C95.6938 149.28 95.3578 149.013 94.9631 148.832C94.5685 148.651 94.1578 148.56 93.7311 148.56C93.4111 148.56 93.0805 148.624 92.7391 148.752C92.4085 148.88 92.1045 149.083 91.8271 149.36C91.5605 149.627 91.3418 149.973 91.1711 150.4C91.0005 150.816 90.9151 151.312 90.9151 151.888C90.9151 152.517 91.0431 153.088 91.2991 153.6C91.5551 154.112 91.9231 154.517 92.4031 154.816C92.8938 155.115 93.4751 155.264 94.1471 155.264C94.5205 155.264 94.8565 155.211 95.1551 155.104C95.4538 154.997 95.7151 154.859 95.9391 154.688C96.1631 154.507 96.3498 154.32 96.4991 154.128C96.6165 154.032 96.7338 153.984 96.8511 153.984C96.9578 153.984 97.0485 154.027 97.1231 154.112C97.2085 154.197 97.2511 154.293 97.2511 154.4C97.2511 154.528 97.1978 154.64 97.0911 154.736C96.7711 155.12 96.3551 155.456 95.8431 155.744C95.3311 156.021 94.7711 156.16 94.1631 156.16ZM103.114 147.632C103.626 147.632 104.095 147.691 104.522 147.808C104.949 147.915 105.29 148.064 105.546 148.256C105.813 148.448 105.946 148.656 105.946 148.88C105.946 148.987 105.909 149.093 105.834 149.2C105.759 149.296 105.658 149.344 105.53 149.344C105.402 149.344 105.295 149.312 105.21 149.248C105.135 149.184 105.055 149.109 104.97 149.024C104.895 148.939 104.783 148.859 104.634 148.784C104.495 148.72 104.298 148.661 104.042 148.608C103.786 148.555 103.493 148.528 103.162 148.528C102.565 148.528 102.026 148.677 101.546 148.976C101.066 149.275 100.687 149.68 100.41 150.192C100.133 150.693 99.994 151.259 99.994 151.888C99.994 152.528 100.127 153.104 100.394 153.616C100.661 154.128 101.029 154.533 101.498 154.832C101.967 155.12 102.517 155.264 103.146 155.264C103.573 155.264 103.903 155.227 104.138 155.152C104.373 155.077 104.575 154.992 104.746 154.896C104.949 154.779 105.093 154.667 105.178 154.56C105.274 154.443 105.397 154.384 105.546 154.384C105.685 154.384 105.786 154.427 105.85 154.512C105.925 154.587 105.962 154.688 105.962 154.816C105.962 154.987 105.834 155.179 105.578 155.392C105.333 155.595 104.991 155.776 104.554 155.936C104.117 156.085 103.615 156.16 103.05 156.16C102.25 156.16 101.546 155.973 100.938 155.6C100.341 155.227 99.8713 154.72 99.53 154.08C99.1993 153.429 99.034 152.699 99.034 151.888C99.034 151.109 99.2047 150.4 99.546 149.76C99.8873 149.12 100.362 148.608 100.97 148.224C101.589 147.829 102.303 147.632 103.114 147.632ZM111.523 147.76C112.195 147.76 112.739 147.904 113.155 148.192C113.571 148.48 113.875 148.869 114.067 149.36C114.27 149.851 114.371 150.395 114.371 150.992V155.52C114.371 155.648 114.323 155.76 114.227 155.856C114.131 155.952 114.019 156 113.891 156C113.742 156 113.625 155.952 113.539 155.856C113.454 155.76 113.411 155.648 113.411 155.52V150.992C113.411 150.555 113.342 150.16 113.203 149.808C113.075 149.456 112.862 149.179 112.563 148.976C112.265 148.763 111.865 148.656 111.363 148.656C110.915 148.656 110.489 148.763 110.083 148.976C109.689 149.179 109.369 149.456 109.123 149.808C108.878 150.16 108.755 150.555 108.755 150.992V155.52C108.755 155.648 108.707 155.76 108.611 155.856C108.515 155.952 108.403 156 108.275 156C108.126 156 108.009 155.952 107.923 155.856C107.838 155.76 107.795 155.648 107.795 155.52V144.64C107.795 144.512 107.838 144.4 107.923 144.304C108.019 144.208 108.137 144.16 108.275 144.16C108.414 144.16 108.526 144.208 108.611 144.304C108.707 144.4 108.755 144.512 108.755 144.64V149.824L108.387 150.384C108.409 150.053 108.51 149.733 108.691 149.424C108.883 149.104 109.129 148.821 109.427 148.576C109.726 148.32 110.057 148.123 110.419 147.984C110.782 147.835 111.15 147.76 111.523 147.76ZM123.593 147.824C123.732 147.824 123.844 147.872 123.929 147.968C124.025 148.064 124.073 148.181 124.073 148.32V155.52C124.073 155.648 124.025 155.76 123.929 155.856C123.833 155.952 123.721 156 123.593 156C123.454 156 123.337 155.952 123.241 155.856C123.156 155.76 123.113 155.648 123.113 155.52V153.616L123.385 153.488C123.385 153.787 123.3 154.091 123.129 154.4C122.969 154.709 122.745 154.997 122.457 155.264C122.169 155.531 121.828 155.749 121.433 155.92C121.049 156.08 120.633 156.16 120.185 156.16C119.46 156.16 118.809 155.973 118.233 155.6C117.668 155.227 117.22 154.715 116.889 154.064C116.569 153.413 116.409 152.683 116.409 151.872C116.409 151.04 116.574 150.309 116.905 149.68C117.236 149.04 117.684 148.539 118.249 148.176C118.814 147.813 119.454 147.632 120.169 147.632C120.628 147.632 121.054 147.712 121.449 147.872C121.854 148.032 122.206 148.251 122.505 148.528C122.804 148.805 123.033 149.125 123.193 149.488C123.364 149.84 123.449 150.208 123.449 150.592L123.113 150.352V148.32C123.113 148.181 123.156 148.064 123.241 147.968C123.337 147.872 123.454 147.824 123.593 147.824ZM120.265 155.264C120.83 155.264 121.332 155.12 121.769 154.832C122.206 154.533 122.548 154.128 122.793 153.616C123.049 153.093 123.177 152.512 123.177 151.872C123.177 151.243 123.049 150.677 122.793 150.176C122.548 149.675 122.206 149.275 121.769 148.976C121.332 148.677 120.83 148.528 120.265 148.528C119.71 148.528 119.209 148.672 118.761 148.96C118.324 149.248 117.977 149.643 117.721 150.144C117.476 150.645 117.353 151.221 117.353 151.872C117.353 152.512 117.476 153.093 117.721 153.616C117.977 154.128 118.324 154.533 118.761 154.832C119.198 155.12 119.7 155.264 120.265 155.264ZM130.448 147.632C131.152 147.632 131.712 147.776 132.128 148.064C132.555 148.341 132.859 148.725 133.04 149.216C133.232 149.696 133.328 150.229 133.328 150.816V155.52C133.328 155.648 133.28 155.76 133.184 155.856C133.088 155.952 132.976 156 132.848 156C132.699 156 132.581 155.952 132.496 155.856C132.411 155.76 132.368 155.648 132.368 155.52V150.864C132.368 150.437 132.299 150.048 132.16 149.696C132.021 149.344 131.792 149.061 131.472 148.848C131.163 148.635 130.752 148.528 130.24 148.528C129.781 148.528 129.344 148.635 128.928 148.848C128.523 149.061 128.192 149.344 127.936 149.696C127.68 150.048 127.552 150.437 127.552 150.864V155.52C127.552 155.648 127.504 155.76 127.408 155.856C127.312 155.952 127.2 156 127.072 156C126.923 156 126.805 155.952 126.72 155.856C126.635 155.76 126.592 155.648 126.592 155.52V148.352C126.592 148.224 126.635 148.112 126.72 148.016C126.816 147.92 126.933 147.872 127.072 147.872C127.211 147.872 127.323 147.92 127.408 148.016C127.504 148.112 127.552 148.224 127.552 148.352V149.696L127.184 150.272C127.205 149.931 127.312 149.605 127.504 149.296C127.707 148.976 127.963 148.693 128.272 148.448C128.581 148.192 128.923 147.995 129.296 147.856C129.68 147.707 130.064 147.632 130.448 147.632ZM136.77 155.52C136.77 155.648 136.722 155.76 136.626 155.856C136.53 155.952 136.418 156 136.29 156C136.151 156 136.034 155.952 135.938 155.856C135.853 155.76 135.81 155.648 135.81 155.52V148.16C135.81 148.032 135.853 147.92 135.938 147.824C136.034 147.728 136.151 147.68 136.29 147.68C136.429 147.68 136.541 147.728 136.626 147.824C136.722 147.92 136.77 148.032 136.77 148.16V155.52ZM136.29 146.608C136.066 146.608 135.895 146.56 135.778 146.464C135.671 146.357 135.618 146.208 135.618 146.016V145.856C135.618 145.664 135.677 145.52 135.794 145.424C135.922 145.317 136.093 145.264 136.306 145.264C136.509 145.264 136.663 145.317 136.77 145.424C136.887 145.52 136.946 145.664 136.946 145.856V146.016C136.946 146.208 136.887 146.357 136.77 146.464C136.663 146.56 136.503 146.608 136.29 146.608ZM142.864 147.632C143.376 147.632 143.845 147.691 144.272 147.808C144.699 147.915 145.04 148.064 145.296 148.256C145.563 148.448 145.696 148.656 145.696 148.88C145.696 148.987 145.659 149.093 145.584 149.2C145.509 149.296 145.408 149.344 145.28 149.344C145.152 149.344 145.045 149.312 144.96 149.248C144.885 149.184 144.805 149.109 144.72 149.024C144.645 148.939 144.533 148.859 144.384 148.784C144.245 148.72 144.048 148.661 143.792 148.608C143.536 148.555 143.243 148.528 142.912 148.528C142.315 148.528 141.776 148.677 141.296 148.976C140.816 149.275 140.437 149.68 140.16 150.192C139.883 150.693 139.744 151.259 139.744 151.888C139.744 152.528 139.877 153.104 140.144 153.616C140.411 154.128 140.779 154.533 141.248 154.832C141.717 155.12 142.267 155.264 142.896 155.264C143.323 155.264 143.653 155.227 143.888 155.152C144.123 155.077 144.325 154.992 144.496 154.896C144.699 154.779 144.843 154.667 144.928 154.56C145.024 154.443 145.147 154.384 145.296 154.384C145.435 154.384 145.536 154.427 145.6 154.512C145.675 154.587 145.712 154.688 145.712 154.816C145.712 154.987 145.584 155.179 145.328 155.392C145.083 155.595 144.741 155.776 144.304 155.936C143.867 156.085 143.365 156.16 142.8 156.16C142 156.16 141.296 155.973 140.688 155.6C140.091 155.227 139.621 154.72 139.28 154.08C138.949 153.429 138.784 152.699 138.784 151.888C138.784 151.109 138.955 150.4 139.296 149.76C139.637 149.12 140.112 148.608 140.72 148.224C141.339 147.829 142.053 147.632 142.864 147.632Z" fill="#E37F7F"/>
</svg>
