<svg width="20" height="20" viewBox="0 0 20 20" fill="none" xmlns="http://www.w3.org/2000/svg">
<path fill-rule="evenodd" clip-rule="evenodd" d="M10 18.3337C14.6024 18.3337 18.3333 14.6027 18.3333 10.0003C18.3333 5.39795 14.6024 1.66699 10 1.66699C5.39763 1.66699 1.66667 5.39795 1.66667 10.0003C1.66667 11.3334 1.97968 12.5934 2.53622 13.7107C2.68412 14.0077 2.73334 14.347 2.6476 14.6675L2.15126 16.5225C1.9358 17.3278 2.67251 18.0645 3.47779 17.8491L5.33282 17.3527C5.65328 17.267 5.99267 17.3162 6.28961 17.4641C7.40697 18.0206 8.66693 18.3337 10 18.3337ZM6.66667 11.042C6.32149 11.042 6.04167 11.3218 6.04167 11.667C6.04167 12.0122 6.32149 12.292 6.66667 12.292H11.25C11.5952 12.292 11.875 12.0122 11.875 11.667C11.875 11.3218 11.5952 11.042 11.25 11.042H6.66667ZM6.04167 8.75033C6.04167 8.40515 6.32149 8.12533 6.66667 8.12533H13.3333C13.6785 8.12533 13.9583 8.40515 13.9583 8.75033C13.9583 9.0955 13.6785 9.37533 13.3333 9.37533H6.66667C6.32149 9.37533 6.04167 9.0955 6.04167 8.75033Z" fill="white"/>
</svg>
