<svg width="22" height="22" viewBox="0 0 22 22" fill="none" xmlns="http://www.w3.org/2000/svg">
<path d="M9.53446 5.20649L10.1294 6.27251C10.6663 7.23453 10.4508 8.49655 9.60515 9.34215C9.60515 9.34215 8.57946 10.3679 10.4391 12.2275C12.2988 14.0872 13.3245 13.0615 13.3245 13.0615C14.1701 12.2159 15.4321 12.0004 16.3942 12.5373L17.4602 13.1322C18.9128 13.9429 19.0844 15.9801 17.8075 17.257C17.0403 18.0243 16.1004 18.6213 15.0613 18.6607C13.3122 18.727 10.3418 18.2843 7.36206 15.3046C4.38237 12.3249 3.9397 9.35445 4.00601 7.60533C4.0454 6.5663 4.6424 5.62638 5.40966 4.85913C6.68653 3.58226 8.72374 3.75382 9.53446 5.20649Z" fill="white"/>
</svg>
