<svg width="48" height="31" viewBox="0 0 48 31" fill="none" xmlns="http://www.w3.org/2000/svg">
<path d="M0 18.5097C0 15.5 0.844283 12.5906 2.53285 9.78155C4.22142 6.97249 6.30729 4.66505 8.79048 2.85922C11.2737 0.953074 13.8065 0 16.389 0C17.283 0 18.1769 0.351134 19.0709 1.0534C19.9648 1.65534 20.4118 2.7589 20.4118 4.36408C20.4118 6.06958 19.8655 7.07282 18.7729 7.37379C17.6803 7.67476 16.4884 8.12622 15.1971 8.72816C13.6079 9.53075 12.3663 10.534 11.4723 11.7379C10.6777 12.8414 10.2804 14.1456 10.2804 15.6505C10.2804 16.754 10.6777 17.7071 11.4723 18.5097C12.3663 19.3123 13.4589 19.7136 14.7501 19.7136C15.3461 19.7136 16.0414 19.6133 16.836 19.4126C17.6306 19.212 18.2763 18.911 18.7729 18.5097C19.5675 19.0113 20.1635 19.6133 20.5608 20.3155C21.0574 21.0178 21.2561 21.9207 21.1567 23.0243C21.1567 25.2314 20.1138 27.1375 18.0279 28.7427C15.9421 30.2476 13.5582 31 10.8764 31C7.59855 31 4.96637 29.7961 2.97982 27.3884C0.993275 24.9806 0 22.021 0 18.5097ZM26.8184 18.5097C26.8184 15.5 27.6627 12.5906 29.3513 9.78155C31.0398 6.97249 33.1257 4.66505 35.6089 2.85922C38.0921 0.953074 40.6249 0 43.2075 0C44.1014 0 44.9953 0.351134 45.8893 1.0534C46.7832 1.65534 47.2302 2.7589 47.2302 4.36408C47.2302 6.06958 46.6839 7.07282 45.5913 7.37379C44.4987 7.67476 43.3068 8.12622 42.0155 8.72816C40.4263 9.53075 39.1847 10.534 38.2907 11.7379C37.4961 12.8414 37.0988 14.1456 37.0988 15.6505C37.0988 16.754 37.4961 17.7071 38.2907 18.5097C39.1847 19.3123 40.2773 19.7136 41.5685 19.7136C42.1645 19.7136 42.8598 19.6133 43.6544 19.4126C44.449 19.212 45.0947 18.911 45.5913 18.5097C46.3859 19.0113 46.9819 19.6133 47.3792 20.3155C47.8758 21.0178 48.0745 21.9207 47.9752 23.0243C47.9752 25.2314 46.9322 27.1375 44.8464 28.7427C42.7605 30.2476 40.3766 31 37.6948 31C34.417 31 31.7848 29.7961 29.7982 27.3884C27.8117 24.9806 26.8184 22.021 26.8184 18.5097Z" fill="#CD464B"/>
</svg>
