<svg width="41" height="32" viewBox="0 0 41 32" fill="none" xmlns="http://www.w3.org/2000/svg">
<path d="M0 31.0909V22.9091C0 20.4242 0.439394 17.7879 1.31818 15C2.22727 12.1818 3.5303 9.4697 5.22727 6.86364C6.95455 4.22727 9.0303 1.93939 11.4545 0L17.2727 4.72727C15.3636 7.45455 13.697 10.303 12.2727 13.2727C10.8788 16.2121 10.1818 19.3636 10.1818 22.7273V31.0909H0ZM23.2727 31.0909V22.9091C23.2727 20.4242 23.7121 17.7879 24.5909 15C25.5 12.1818 26.803 9.4697 28.5 6.86364C30.2273 4.22727 32.303 1.93939 34.7273 0L40.5455 4.72727C38.6364 7.45455 36.9697 10.303 35.5455 13.2727C34.1515 16.2121 33.4545 19.3636 33.4545 22.7273V31.0909H23.2727Z" fill="black"/>
</svg>
