<svg width="197" height="47" viewBox="0 0 197 47" fill="none" xmlns="http://www.w3.org/2000/svg">
<path d="M72.792 9.752C73.0373 9.752 73.272 9.848 73.496 10.04C73.72 10.2213 73.832 10.472 73.832 10.792C73.832 10.888 73.816 10.9947 73.784 11.112L70.632 20.392C70.568 20.584 70.4507 20.7333 70.28 20.84C70.12 20.936 69.9493 20.9893 69.768 21C69.5867 21 69.4053 20.9467 69.224 20.84C69.0533 20.7333 68.92 20.5787 68.824 20.376L66.456 15L66.6 15.096L64.264 20.376C64.168 20.5787 64.0293 20.7333 63.848 20.84C63.6773 20.9467 63.5013 21 63.32 21C63.1493 20.9893 62.9787 20.936 62.808 20.84C62.6373 20.7333 62.52 20.584 62.456 20.392L59.304 11.112C59.272 10.9947 59.256 10.888 59.256 10.792C59.256 10.472 59.368 10.2213 59.592 10.04C59.8267 9.848 60.0667 9.752 60.312 9.752C60.5147 9.752 60.7013 9.80533 60.872 9.912C61.0533 10.0187 61.176 10.1733 61.24 10.376L63.784 18.088L63.432 18.072L65.704 12.616C65.7893 12.424 65.912 12.2747 66.072 12.168C66.232 12.0507 66.4133 11.9973 66.616 12.008C66.8187 11.9973 67 12.0507 67.16 12.168C67.32 12.2747 67.4373 12.424 67.512 12.616L69.592 17.832L69.336 17.992L71.848 10.376C71.912 10.1733 72.0347 10.0187 72.216 9.912C72.3973 9.80533 72.5893 9.752 72.792 9.752ZM82.0011 12.28C82.2785 12.28 82.5078 12.3707 82.6891 12.552C82.8705 12.7333 82.9611 12.968 82.9611 13.256V20.024C82.9611 20.3013 82.8705 20.536 82.6891 20.728C82.5078 20.9093 82.2785 21 82.0011 21C81.7238 21 81.4945 20.9093 81.3131 20.728C81.1318 20.536 81.0411 20.3013 81.0411 20.024V19.24L81.3931 19.384C81.3931 19.5227 81.3185 19.6933 81.1691 19.896C81.0198 20.088 80.8171 20.28 80.5611 20.472C80.3051 20.664 80.0011 20.8293 79.6491 20.968C79.3078 21.096 78.9345 21.16 78.5291 21.16C77.7931 21.16 77.1265 20.9733 76.5291 20.6C75.9318 20.216 75.4571 19.6933 75.1051 19.032C74.7638 18.36 74.5931 17.592 74.5931 16.728C74.5931 15.8533 74.7638 15.0853 75.1051 14.424C75.4571 13.752 75.9265 13.2293 76.5131 12.856C77.0998 12.472 77.7505 12.28 78.4651 12.28C78.9238 12.28 79.3451 12.3493 79.7291 12.488C80.1131 12.6267 80.4438 12.8027 80.7211 13.016C81.0091 13.2293 81.2278 13.448 81.3771 13.672C81.5371 13.8853 81.6171 14.0667 81.6171 14.216L81.0411 14.424V13.256C81.0411 12.9787 81.1318 12.7493 81.3131 12.568C81.4945 12.376 81.7238 12.28 82.0011 12.28ZM78.7691 19.4C79.2385 19.4 79.6491 19.2827 80.0011 19.048C80.3531 18.8133 80.6251 18.4933 80.8171 18.088C81.0198 17.6827 81.1211 17.2293 81.1211 16.728C81.1211 16.216 81.0198 15.7573 80.8171 15.352C80.6251 14.9467 80.3531 14.6267 80.0011 14.392C79.6491 14.1573 79.2385 14.04 78.7691 14.04C78.3105 14.04 77.9051 14.1573 77.5531 14.392C77.2011 14.6267 76.9238 14.9467 76.7211 15.352C76.5291 15.7573 76.4331 16.216 76.4331 16.728C76.4331 17.2293 76.5291 17.6827 76.7211 18.088C76.9238 18.4933 77.2011 18.8133 77.5531 19.048C77.9051 19.2827 78.3105 19.4 78.7691 19.4ZM87.12 20.024C87.12 20.3013 87.024 20.536 86.832 20.728C86.6507 20.9093 86.4213 21 86.144 21C85.8773 21 85.6533 20.9093 85.472 20.728C85.2907 20.536 85.2 20.3013 85.2 20.024V10.136C85.2 9.85867 85.2907 9.62933 85.472 9.448C85.664 9.256 85.8987 9.16 86.176 9.16C86.4533 9.16 86.6773 9.256 86.848 9.448C87.0293 9.62933 87.12 9.85867 87.12 10.136V20.024ZM91.4325 20.024C91.4325 20.3013 91.3365 20.536 91.1445 20.728C90.9632 20.9093 90.7338 21 90.4565 21C90.1898 21 89.9658 20.9093 89.7845 20.728C89.6032 20.536 89.5125 20.3013 89.5125 20.024V10.136C89.5125 9.85867 89.6032 9.62933 89.7845 9.448C89.9765 9.256 90.2112 9.16 90.4885 9.16C90.7658 9.16 90.9898 9.256 91.1605 9.448C91.3418 9.62933 91.4325 9.85867 91.4325 10.136V20.024ZM99.7826 12.44C100.06 12.44 100.289 12.536 100.471 12.728C100.652 12.9093 100.743 13.1387 100.743 13.416V20.216C100.743 21.1973 100.556 21.976 100.183 22.552C99.82 23.1387 99.3293 23.56 98.7106 23.816C98.092 24.072 97.3986 24.2 96.6306 24.2C96.2893 24.2 95.9266 24.1733 95.5426 24.12C95.1586 24.0667 94.844 23.9867 94.5986 23.88C94.2786 23.7413 94.0546 23.5653 93.9266 23.352C93.8093 23.1493 93.788 22.9307 93.8626 22.696C93.9586 22.3867 94.1133 22.1733 94.3266 22.056C94.54 21.9493 94.764 21.9387 94.9986 22.024C95.1693 22.0773 95.3933 22.1573 95.6706 22.264C95.948 22.3813 96.268 22.44 96.6306 22.44C97.1213 22.44 97.5266 22.3707 97.8466 22.232C98.1773 22.104 98.4226 21.88 98.5826 21.56C98.7533 21.2507 98.8386 20.824 98.8386 20.28V19.208L99.1746 19.592C98.9933 19.944 98.764 20.2373 98.4866 20.472C98.22 20.696 97.9 20.8667 97.5266 20.984C97.1533 21.1013 96.7266 21.16 96.2466 21.16C95.6813 21.16 95.1853 21.032 94.7586 20.776C94.3426 20.5093 94.0173 20.1467 93.7826 19.688C93.548 19.2187 93.4306 18.6853 93.4306 18.088V13.416C93.4306 13.1387 93.5213 12.9093 93.7026 12.728C93.884 12.536 94.1133 12.44 94.3906 12.44C94.668 12.44 94.8973 12.536 95.0786 12.728C95.26 12.9093 95.3506 13.1387 95.3506 13.416V17.512C95.3506 18.2053 95.5 18.696 95.7986 18.984C96.108 19.2613 96.5346 19.4 97.0786 19.4C97.452 19.4 97.7666 19.3307 98.0226 19.192C98.2786 19.0427 98.476 18.8293 98.6146 18.552C98.7533 18.264 98.8226 17.9173 98.8226 17.512V13.416C98.8226 13.1387 98.9133 12.9093 99.0946 12.728C99.276 12.536 99.5053 12.44 99.7826 12.44ZM105.253 11.416C105.253 11.768 105.152 12.1253 104.949 12.488C104.757 12.84 104.501 13.1387 104.181 13.384C103.872 13.6187 103.541 13.736 103.189 13.736C103.072 13.736 102.944 13.688 102.805 13.592C102.677 13.496 102.613 13.3307 102.613 13.096C102.613 12.8507 102.688 12.7067 102.837 12.664C102.997 12.6107 103.131 12.5573 103.237 12.504C103.376 12.4293 103.483 12.344 103.557 12.248C103.643 12.1413 103.685 12.0133 103.685 11.864C103.685 11.7467 103.627 11.6453 103.509 11.56C103.403 11.464 103.259 11.416 103.077 11.416C103.013 11.416 102.939 11.4267 102.853 11.448C102.768 11.4587 102.693 11.4853 102.629 11.528C102.523 11.4747 102.427 11.4107 102.341 11.336C102.267 11.2507 102.229 11.1173 102.229 10.936C102.229 10.6053 102.379 10.3227 102.677 10.088C102.987 9.84267 103.344 9.72 103.749 9.72C104.208 9.72 104.571 9.87467 104.837 10.184C105.115 10.4933 105.253 10.904 105.253 11.416ZM106.732 19.672C106.625 19.5227 106.577 19.3307 106.588 19.096C106.598 18.8613 106.737 18.6587 107.004 18.488C107.174 18.3813 107.356 18.3387 107.548 18.36C107.74 18.3707 107.926 18.4667 108.108 18.648C108.417 18.9573 108.742 19.1973 109.084 19.368C109.425 19.5387 109.852 19.624 110.364 19.624C110.524 19.6133 110.7 19.592 110.891 19.56C111.084 19.5173 111.249 19.432 111.388 19.304C111.537 19.1653 111.612 18.9573 111.612 18.68C111.612 18.4453 111.532 18.2587 111.372 18.12C111.212 17.9813 110.998 17.864 110.732 17.768C110.476 17.672 110.188 17.5813 109.868 17.496C109.537 17.4 109.196 17.2933 108.844 17.176C108.502 17.0587 108.188 16.9093 107.9 16.728C107.612 16.536 107.377 16.2853 107.196 15.976C107.014 15.6667 106.924 15.2773 106.924 14.808C106.924 14.2747 107.073 13.8213 107.372 13.448C107.67 13.0747 108.054 12.7867 108.524 12.584C109.004 12.3813 109.505 12.28 110.028 12.28C110.358 12.28 110.705 12.3227 111.068 12.408C111.43 12.4827 111.777 12.6107 112.108 12.792C112.438 12.9627 112.716 13.192 112.94 13.48C113.057 13.64 113.126 13.832 113.148 14.056C113.169 14.28 113.068 14.4827 112.844 14.664C112.684 14.792 112.497 14.8507 112.284 14.84C112.07 14.8187 111.894 14.744 111.756 14.616C111.574 14.3813 111.329 14.1947 111.02 14.056C110.721 13.9173 110.374 13.848 109.98 13.848C109.82 13.848 109.644 13.8693 109.452 13.912C109.27 13.944 109.11 14.024 108.972 14.152C108.833 14.2693 108.764 14.4613 108.764 14.728C108.764 14.9733 108.844 15.1707 109.004 15.32C109.164 15.4587 109.377 15.576 109.644 15.672C109.921 15.7573 110.214 15.8427 110.524 15.928C110.844 16.0133 111.169 16.1147 111.5 16.232C111.83 16.3493 112.134 16.504 112.412 16.696C112.689 16.888 112.913 17.1387 113.084 17.448C113.254 17.7467 113.34 18.1307 113.34 18.6C113.34 19.144 113.18 19.608 112.86 19.992C112.54 20.376 112.14 20.6693 111.66 20.872C111.18 21.064 110.689 21.16 110.188 21.16C109.558 21.16 108.929 21.0533 108.299 20.84C107.67 20.616 107.148 20.2267 106.732 19.672ZM132.183 9.752C132.428 9.752 132.663 9.848 132.887 10.04C133.111 10.2213 133.223 10.472 133.223 10.792C133.223 10.888 133.207 10.9947 133.175 11.112L130.023 20.392C129.959 20.584 129.841 20.7333 129.671 20.84C129.511 20.936 129.34 20.9893 129.159 21C128.977 21 128.796 20.9467 128.615 20.84C128.444 20.7333 128.311 20.5787 128.215 20.376L125.847 15L125.991 15.096L123.655 20.376C123.559 20.5787 123.42 20.7333 123.239 20.84C123.068 20.9467 122.892 21 122.711 21C122.54 20.9893 122.369 20.936 122.199 20.84C122.028 20.7333 121.911 20.584 121.847 20.392L118.695 11.112C118.663 10.9947 118.647 10.888 118.647 10.792C118.647 10.472 118.759 10.2213 118.983 10.04C119.217 9.848 119.457 9.752 119.703 9.752C119.905 9.752 120.092 9.80533 120.263 9.912C120.444 10.0187 120.567 10.1733 120.631 10.376L123.175 18.088L122.823 18.072L125.095 12.616C125.18 12.424 125.303 12.2747 125.463 12.168C125.623 12.0507 125.804 11.9973 126.007 12.008C126.209 11.9973 126.391 12.0507 126.551 12.168C126.711 12.2747 126.828 12.424 126.903 12.616L128.983 17.832L128.727 17.992L131.239 10.376C131.303 10.1733 131.425 10.0187 131.607 9.912C131.788 9.80533 131.98 9.752 132.183 9.752ZM142.594 16.728C142.594 17.6027 142.397 18.376 142.002 19.048C141.618 19.7093 141.095 20.2267 140.434 20.6C139.783 20.9733 139.053 21.16 138.242 21.16C137.431 21.16 136.695 20.9733 136.034 20.6C135.383 20.2267 134.861 19.7093 134.466 19.048C134.082 18.376 133.89 17.6027 133.89 16.728C133.89 15.8533 134.082 15.0853 134.466 14.424C134.861 13.752 135.383 13.2293 136.034 12.856C136.695 12.472 137.431 12.28 138.242 12.28C139.053 12.28 139.783 12.472 140.434 12.856C141.095 13.2293 141.618 13.752 142.002 14.424C142.397 15.0853 142.594 15.8533 142.594 16.728ZM140.674 16.728C140.674 16.184 140.562 15.7147 140.338 15.32C140.125 14.9147 139.831 14.6 139.458 14.376C139.095 14.152 138.69 14.04 138.242 14.04C137.794 14.04 137.383 14.152 137.01 14.376C136.647 14.6 136.354 14.9147 136.13 15.32C135.917 15.7147 135.81 16.184 135.81 16.728C135.81 17.2613 135.917 17.7307 136.13 18.136C136.354 18.5307 136.647 18.84 137.01 19.064C137.383 19.288 137.794 19.4 138.242 19.4C138.69 19.4 139.095 19.288 139.458 19.064C139.831 18.84 140.125 18.5307 140.338 18.136C140.562 17.7307 140.674 17.2613 140.674 16.728ZM145.234 21C144.957 21 144.728 20.9093 144.546 20.728C144.365 20.536 144.274 20.3013 144.274 20.024V13.416C144.274 13.1387 144.365 12.9093 144.546 12.728C144.728 12.536 144.957 12.44 145.234 12.44C145.512 12.44 145.741 12.536 145.922 12.728C146.104 12.9093 146.194 13.1387 146.194 13.416V14.92L146.082 13.848C146.2 13.592 146.349 13.368 146.53 13.176C146.722 12.9733 146.936 12.808 147.17 12.68C147.405 12.5413 147.656 12.44 147.922 12.376C148.189 12.312 148.456 12.28 148.722 12.28C149.042 12.28 149.309 12.3707 149.522 12.552C149.746 12.7333 149.858 12.9467 149.858 13.192C149.858 13.544 149.768 13.8 149.586 13.96C149.405 14.1093 149.208 14.184 148.994 14.184C148.792 14.184 148.605 14.1467 148.434 14.072C148.274 13.9973 148.088 13.96 147.874 13.96C147.682 13.96 147.485 14.008 147.282 14.104C147.09 14.1893 146.909 14.328 146.738 14.52C146.578 14.712 146.445 14.952 146.338 15.24C146.242 15.5173 146.194 15.848 146.194 16.232V20.024C146.194 20.3013 146.104 20.536 145.922 20.728C145.741 20.9093 145.512 21 145.234 21ZM152.332 21C152.055 21 151.825 20.9093 151.644 20.728C151.463 20.536 151.372 20.3013 151.372 20.024V10.136C151.372 9.85867 151.463 9.62933 151.644 9.448C151.825 9.256 152.055 9.16 152.332 9.16C152.609 9.16 152.839 9.256 153.02 9.448C153.201 9.62933 153.292 9.85867 153.292 10.136V20.024C153.292 20.3013 153.201 20.536 153.02 20.728C152.839 20.9093 152.609 21 152.332 21ZM157.42 12.44C157.665 12.44 157.879 12.5413 158.06 12.744C158.241 12.9467 158.332 13.144 158.332 13.336C158.332 13.592 158.204 13.832 157.948 14.056L153.132 18.488L153.052 16.28L156.716 12.744C156.919 12.5413 157.153 12.44 157.42 12.44ZM157.66 20.984C157.383 20.984 157.148 20.8773 156.956 20.664L153.996 17.528L155.452 16.184L158.332 19.32C158.535 19.5333 158.636 19.7733 158.636 20.04C158.636 20.3173 158.524 20.5467 158.3 20.728C158.087 20.8987 157.873 20.984 157.66 20.984ZM159.747 19.672C159.64 19.5227 159.592 19.3307 159.603 19.096C159.614 18.8613 159.752 18.6587 160.019 18.488C160.19 18.3813 160.371 18.3387 160.563 18.36C160.755 18.3707 160.942 18.4667 161.123 18.648C161.432 18.9573 161.758 19.1973 162.099 19.368C162.44 19.5387 162.867 19.624 163.379 19.624C163.539 19.6133 163.715 19.592 163.907 19.56C164.099 19.5173 164.264 19.432 164.403 19.304C164.552 19.1653 164.627 18.9573 164.627 18.68C164.627 18.4453 164.547 18.2587 164.387 18.12C164.227 17.9813 164.014 17.864 163.747 17.768C163.491 17.672 163.203 17.5813 162.883 17.496C162.552 17.4 162.211 17.2933 161.859 17.176C161.518 17.0587 161.203 16.9093 160.915 16.728C160.627 16.536 160.392 16.2853 160.211 15.976C160.03 15.6667 159.939 15.2773 159.939 14.808C159.939 14.2747 160.088 13.8213 160.387 13.448C160.686 13.0747 161.07 12.7867 161.539 12.584C162.019 12.3813 162.52 12.28 163.043 12.28C163.374 12.28 163.72 12.3227 164.083 12.408C164.446 12.4827 164.792 12.6107 165.123 12.792C165.454 12.9627 165.731 13.192 165.955 13.48C166.072 13.64 166.142 13.832 166.163 14.056C166.184 14.28 166.083 14.4827 165.859 14.664C165.699 14.792 165.512 14.8507 165.299 14.84C165.086 14.8187 164.91 14.744 164.771 14.616C164.59 14.3813 164.344 14.1947 164.035 14.056C163.736 13.9173 163.39 13.848 162.995 13.848C162.835 13.848 162.659 13.8693 162.467 13.912C162.286 13.944 162.126 14.024 161.987 14.152C161.848 14.2693 161.779 14.4613 161.779 14.728C161.779 14.9733 161.859 15.1707 162.019 15.32C162.179 15.4587 162.392 15.576 162.659 15.672C162.936 15.7573 163.23 15.8427 163.539 15.928C163.859 16.0133 164.184 16.1147 164.515 16.232C164.846 16.3493 165.15 16.504 165.427 16.696C165.704 16.888 165.928 17.1387 166.099 17.448C166.27 17.7467 166.355 18.1307 166.355 18.6C166.355 19.144 166.195 19.608 165.875 19.992C165.555 20.376 165.155 20.6693 164.675 20.872C164.195 21.064 163.704 21.16 163.203 21.16C162.574 21.16 161.944 21.0533 161.315 20.84C160.686 20.616 160.163 20.2267 159.747 19.672ZM172.458 12.28C173.226 12.28 173.807 12.4453 174.202 12.776C174.607 13.1067 174.885 13.5493 175.034 14.104C175.183 14.648 175.258 15.256 175.258 15.928V20.024C175.258 20.3013 175.167 20.536 174.986 20.728C174.805 20.9093 174.575 21 174.298 21C174.021 21 173.791 20.9093 173.61 20.728C173.429 20.536 173.338 20.3013 173.338 20.024V15.928C173.338 15.576 173.295 15.2613 173.21 14.984C173.125 14.696 172.97 14.4667 172.746 14.296C172.522 14.1253 172.202 14.04 171.786 14.04C171.381 14.04 171.034 14.1253 170.746 14.296C170.458 14.4667 170.239 14.696 170.09 14.984C169.951 15.2613 169.882 15.576 169.882 15.928V20.024C169.882 20.3013 169.791 20.536 169.61 20.728C169.429 20.9093 169.199 21 168.922 21C168.645 21 168.415 20.9093 168.234 20.728C168.053 20.536 167.962 20.3013 167.962 20.024V10.136C167.962 9.85867 168.053 9.62933 168.234 9.448C168.415 9.256 168.645 9.16 168.922 9.16C169.199 9.16 169.429 9.256 169.61 9.448C169.791 9.62933 169.882 9.85867 169.882 10.136V14.104L169.642 14.056C169.738 13.8747 169.871 13.6827 170.042 13.48C170.213 13.2667 170.421 13.0693 170.666 12.888C170.911 12.7067 171.183 12.5627 171.482 12.456C171.781 12.3387 172.106 12.28 172.458 12.28ZM185.641 16.728C185.641 17.6027 185.444 18.376 185.049 19.048C184.665 19.7093 184.142 20.2267 183.481 20.6C182.83 20.9733 182.1 21.16 181.289 21.16C180.478 21.16 179.742 20.9733 179.081 20.6C178.43 20.2267 177.908 19.7093 177.513 19.048C177.129 18.376 176.937 17.6027 176.937 16.728C176.937 15.8533 177.129 15.0853 177.513 14.424C177.908 13.752 178.43 13.2293 179.081 12.856C179.742 12.472 180.478 12.28 181.289 12.28C182.1 12.28 182.83 12.472 183.481 12.856C184.142 13.2293 184.665 13.752 185.049 14.424C185.444 15.0853 185.641 15.8533 185.641 16.728ZM183.721 16.728C183.721 16.184 183.609 15.7147 183.385 15.32C183.172 14.9147 182.878 14.6 182.505 14.376C182.142 14.152 181.737 14.04 181.289 14.04C180.841 14.04 180.43 14.152 180.057 14.376C179.694 14.6 179.401 14.9147 179.177 15.32C178.964 15.7147 178.857 16.184 178.857 16.728C178.857 17.2613 178.964 17.7307 179.177 18.136C179.401 18.5307 179.694 18.84 180.057 19.064C180.43 19.288 180.841 19.4 181.289 19.4C181.737 19.4 182.142 19.288 182.505 19.064C182.878 18.84 183.172 18.5307 183.385 18.136C183.609 17.7307 183.721 17.2613 183.721 16.728ZM191.753 12.28C192.5 12.28 193.167 12.472 193.753 12.856C194.351 13.2293 194.82 13.7467 195.161 14.408C195.513 15.0693 195.689 15.8373 195.689 16.712C195.689 17.5867 195.513 18.36 195.161 19.032C194.82 19.6933 194.356 20.216 193.769 20.6C193.193 20.9733 192.543 21.16 191.817 21.16C191.391 21.16 190.991 21.0907 190.617 20.952C190.244 20.8133 189.913 20.6373 189.625 20.424C189.348 20.2107 189.129 19.9973 188.969 19.784C188.82 19.56 188.745 19.3733 188.745 19.224L189.241 19.016V23.224C189.241 23.5013 189.151 23.7307 188.969 23.912C188.788 24.104 188.559 24.2 188.281 24.2C188.004 24.2 187.775 24.1093 187.593 23.928C187.412 23.7467 187.321 23.512 187.321 23.224V13.416C187.321 13.1387 187.412 12.9093 187.593 12.728C187.775 12.536 188.004 12.44 188.281 12.44C188.559 12.44 188.788 12.536 188.969 12.728C189.151 12.9093 189.241 13.1387 189.241 13.416V14.2L188.969 14.056C188.969 13.9173 189.044 13.752 189.193 13.56C189.343 13.3573 189.545 13.16 189.801 12.968C190.057 12.7653 190.351 12.6 190.681 12.472C191.023 12.344 191.38 12.28 191.753 12.28ZM191.513 14.04C191.044 14.04 190.633 14.1573 190.281 14.392C189.929 14.6267 189.652 14.9467 189.449 15.352C189.257 15.7467 189.161 16.2 189.161 16.712C189.161 17.2133 189.257 17.672 189.449 18.088C189.652 18.4933 189.929 18.8133 190.281 19.048C190.633 19.2827 191.044 19.4 191.513 19.4C191.983 19.4 192.388 19.2827 192.729 19.048C193.081 18.8133 193.353 18.4933 193.545 18.088C193.748 17.672 193.849 17.2133 193.849 16.712C193.849 16.2 193.748 15.7467 193.545 15.352C193.353 14.9467 193.081 14.6267 192.729 14.392C192.388 14.1573 191.983 14.04 191.513 14.04Z" fill="#CD464B"/>
<path d="M60.984 27.8C61.0587 27.8 61.1333 27.816 61.208 27.848C61.2933 27.88 61.3627 27.9333 61.416 28.008L65.832 34.632L65.4 34.616L69.832 28.008C69.9493 27.848 70.0933 27.7787 70.264 27.8C70.392 27.8 70.4987 27.848 70.584 27.944C70.68 28.0293 70.728 28.1413 70.728 28.28V38.52C70.728 38.648 70.68 38.76 70.584 38.856C70.488 38.952 70.3707 39 70.232 39C70.0827 39 69.96 38.952 69.864 38.856C69.768 38.76 69.72 38.648 69.72 38.52V29.256L70.008 29.288L65.96 35.416C65.928 35.48 65.88 35.5333 65.816 35.576C65.752 35.608 65.6773 35.6187 65.592 35.608C65.5173 35.6187 65.4427 35.608 65.368 35.576C65.304 35.5333 65.2507 35.48 65.208 35.416L61.144 29.224L61.448 29.016V38.52C61.448 38.648 61.4 38.76 61.304 38.856C61.2187 38.952 61.1067 39 60.968 39C60.8293 39 60.7173 38.952 60.632 38.856C60.5467 38.76 60.504 38.648 60.504 38.52V28.28C60.504 28.152 60.5467 28.04 60.632 27.944C60.728 27.848 60.8453 27.8 60.984 27.8ZM81.1144 34.904C81.1144 35.7147 80.9384 36.4453 80.5864 37.096C80.2344 37.736 79.7544 38.2427 79.1464 38.616C78.5384 38.9787 77.845 39.16 77.0664 39.16C76.309 39.16 75.621 38.9787 75.0024 38.616C74.3944 38.2427 73.909 37.736 73.5464 37.096C73.1944 36.4453 73.0184 35.7147 73.0184 34.904C73.0184 34.0827 73.1944 33.352 73.5464 32.712C73.909 32.072 74.3944 31.5653 75.0024 31.192C75.621 30.8187 76.309 30.632 77.0664 30.632C77.845 30.632 78.5384 30.8187 79.1464 31.192C79.7544 31.5653 80.2344 32.072 80.5864 32.712C80.9384 33.352 81.1144 34.0827 81.1144 34.904ZM80.1544 34.904C80.1544 34.2533 80.021 33.6773 79.7544 33.176C79.4877 32.664 79.1197 32.264 78.6504 31.976C78.1917 31.6773 77.6637 31.528 77.0664 31.528C76.4904 31.528 75.9677 31.6773 75.4984 31.976C75.029 32.264 74.6557 32.664 74.3784 33.176C74.1117 33.6773 73.9784 34.2533 73.9784 34.904C73.9784 35.5547 74.1117 36.1307 74.3784 36.632C74.6557 37.1333 75.029 37.5333 75.4984 37.832C75.9677 38.12 76.4904 38.264 77.0664 38.264C77.6637 38.264 78.1917 38.12 78.6504 37.832C79.1197 37.5333 79.4877 37.1333 79.7544 36.632C80.021 36.1307 80.1544 35.5547 80.1544 34.904ZM87.0426 30.632C87.768 30.632 88.408 30.8133 88.9626 31.176C89.528 31.5387 89.976 32.04 90.3066 32.68C90.6373 33.3093 90.8026 34.04 90.8026 34.872C90.8026 35.6827 90.6373 36.4133 90.3066 37.064C89.976 37.7147 89.528 38.2267 88.9626 38.6C88.3973 38.9733 87.7626 39.16 87.0586 39.16C86.6853 39.16 86.328 39.1013 85.9866 38.984C85.656 38.8667 85.352 38.712 85.0746 38.52C84.7973 38.3173 84.552 38.0827 84.3386 37.816C84.1253 37.5493 83.9546 37.2613 83.8266 36.952L84.1146 36.744V38.552C84.1146 38.6907 84.0666 38.808 83.9706 38.904C83.8853 38.9893 83.7733 39.032 83.6346 39.032C83.496 39.032 83.3786 38.9893 83.2826 38.904C83.1973 38.808 83.1546 38.6907 83.1546 38.552V27.656C83.1546 27.5173 83.1973 27.4053 83.2826 27.32C83.368 27.224 83.4853 27.176 83.6346 27.176C83.7733 27.176 83.8853 27.224 83.9706 27.32C84.0666 27.4053 84.1146 27.5173 84.1146 27.656V33.016L83.8906 32.888C83.9973 32.5573 84.152 32.2587 84.3546 31.992C84.568 31.7147 84.8133 31.4747 85.0906 31.272C85.368 31.0693 85.672 30.9147 86.0026 30.808C86.3333 30.6907 86.68 30.632 87.0426 30.632ZM86.9626 31.528C86.3866 31.528 85.88 31.672 85.4426 31.96C85.0053 32.248 84.6586 32.6427 84.4026 33.144C84.1573 33.6453 84.0346 34.2213 84.0346 34.872C84.0346 35.512 84.1573 36.0933 84.4026 36.616C84.6586 37.128 85.0053 37.5333 85.4426 37.832C85.88 38.12 86.3866 38.264 86.9626 38.264C87.528 38.264 88.024 38.1147 88.4506 37.816C88.888 37.5173 89.2346 37.112 89.4906 36.6C89.7466 36.0773 89.8746 35.5013 89.8746 34.872C89.8746 34.2213 89.7466 33.6453 89.4906 33.144C89.2346 32.6427 88.888 32.248 88.4506 31.96C88.024 31.672 87.528 31.528 86.9626 31.528ZM93.7858 38.52C93.7858 38.648 93.7378 38.76 93.6418 38.856C93.5458 38.952 93.4338 39 93.3058 39C93.1671 39 93.0498 38.952 92.9538 38.856C92.8684 38.76 92.8258 38.648 92.8258 38.52V31.16C92.8258 31.032 92.8684 30.92 92.9538 30.824C93.0498 30.728 93.1671 30.68 93.3058 30.68C93.4444 30.68 93.5564 30.728 93.6418 30.824C93.7378 30.92 93.7858 31.032 93.7858 31.16V38.52ZM93.3058 29.608C93.0818 29.608 92.9111 29.56 92.7938 29.464C92.6871 29.3573 92.6338 29.208 92.6338 29.016V28.856C92.6338 28.664 92.6924 28.52 92.8098 28.424C92.9378 28.3173 93.1084 28.264 93.3218 28.264C93.5244 28.264 93.6791 28.3173 93.7858 28.424C93.9031 28.52 93.9618 28.664 93.9618 28.856V29.016C93.9618 29.208 93.9031 29.3573 93.7858 29.464C93.6791 29.56 93.5191 29.608 93.3058 29.608ZM97.3356 38.52C97.3356 38.648 97.2876 38.76 97.1916 38.856C97.0956 38.952 96.9836 39 96.8556 39C96.717 39 96.5996 38.952 96.5036 38.856C96.4183 38.76 96.3756 38.648 96.3756 38.52V27.64C96.3756 27.512 96.4236 27.4 96.5196 27.304C96.6156 27.208 96.7276 27.16 96.8556 27.16C96.9943 27.16 97.1063 27.208 97.1916 27.304C97.2876 27.4 97.3356 27.512 97.3356 27.64V38.52ZM103.507 39.16C102.686 39.16 101.96 38.984 101.331 38.632C100.702 38.28 100.211 37.7893 99.8589 37.16C99.5069 36.5307 99.3309 35.7947 99.3309 34.952C99.3309 34.0453 99.5069 33.272 99.8589 32.632C100.222 31.992 100.686 31.5013 101.251 31.16C101.827 30.808 102.435 30.632 103.075 30.632C103.544 30.632 103.998 30.7173 104.435 30.888C104.883 31.048 105.278 31.2933 105.619 31.624C105.971 31.944 106.248 32.3387 106.451 32.808C106.664 33.2773 106.782 33.8213 106.803 34.44C106.792 34.568 106.739 34.68 106.643 34.776C106.547 34.8613 106.435 34.904 106.307 34.904H99.8909L99.6989 34.04H106.003L105.795 34.232V33.912C105.752 33.4107 105.592 32.984 105.315 32.632C105.038 32.28 104.702 32.0133 104.307 31.832C103.912 31.6507 103.502 31.56 103.075 31.56C102.755 31.56 102.424 31.624 102.083 31.752C101.752 31.88 101.448 32.0827 101.171 32.36C100.904 32.6267 100.686 32.9733 100.515 33.4C100.344 33.816 100.259 34.312 100.259 34.888C100.259 35.5173 100.387 36.088 100.643 36.6C100.899 37.112 101.267 37.5173 101.747 37.816C102.238 38.1147 102.819 38.264 103.491 38.264C103.864 38.264 104.2 38.2107 104.499 38.104C104.798 37.9973 105.059 37.8587 105.283 37.688C105.507 37.5067 105.694 37.32 105.843 37.128C105.96 37.032 106.078 36.984 106.195 36.984C106.302 36.984 106.392 37.0267 106.467 37.112C106.552 37.1973 106.595 37.2933 106.595 37.4C106.595 37.528 106.542 37.64 106.435 37.736C106.115 38.12 105.699 38.456 105.187 38.744C104.675 39.0213 104.115 39.16 103.507 39.16ZM113.953 27.8C114.027 27.8 114.102 27.816 114.177 27.848C114.262 27.88 114.331 27.9333 114.385 28.008L118.801 34.632L118.369 34.616L122.801 28.008C122.918 27.848 123.062 27.7787 123.233 27.8C123.361 27.8 123.467 27.848 123.553 27.944C123.649 28.0293 123.697 28.1413 123.697 28.28V38.52C123.697 38.648 123.649 38.76 123.553 38.856C123.457 38.952 123.339 39 123.201 39C123.051 39 122.929 38.952 122.833 38.856C122.737 38.76 122.689 38.648 122.689 38.52V29.256L122.977 29.288L118.929 35.416C118.897 35.48 118.849 35.5333 118.785 35.576C118.721 35.608 118.646 35.6187 118.561 35.608C118.486 35.6187 118.411 35.608 118.337 35.576C118.273 35.5333 118.219 35.48 118.177 35.416L114.113 29.224L114.417 29.016V38.52C114.417 38.648 114.369 38.76 114.273 38.856C114.187 38.952 114.075 39 113.937 39C113.798 39 113.686 38.952 113.601 38.856C113.515 38.76 113.473 38.648 113.473 38.52V28.28C113.473 28.152 113.515 28.04 113.601 27.944C113.697 27.848 113.814 27.8 113.953 27.8ZM130.163 39.16C129.342 39.16 128.616 38.984 127.987 38.632C127.358 38.28 126.867 37.7893 126.515 37.16C126.163 36.5307 125.987 35.7947 125.987 34.952C125.987 34.0453 126.163 33.272 126.515 32.632C126.878 31.992 127.342 31.5013 127.907 31.16C128.483 30.808 129.091 30.632 129.731 30.632C130.2 30.632 130.654 30.7173 131.091 30.888C131.539 31.048 131.934 31.2933 132.275 31.624C132.627 31.944 132.904 32.3387 133.107 32.808C133.32 33.2773 133.438 33.8213 133.459 34.44C133.448 34.568 133.395 34.68 133.299 34.776C133.203 34.8613 133.091 34.904 132.963 34.904H126.547L126.355 34.04H132.659L132.451 34.232V33.912C132.408 33.4107 132.248 32.984 131.971 32.632C131.694 32.28 131.358 32.0133 130.963 31.832C130.568 31.6507 130.158 31.56 129.731 31.56C129.411 31.56 129.08 31.624 128.739 31.752C128.408 31.88 128.104 32.0827 127.827 32.36C127.56 32.6267 127.342 32.9733 127.171 33.4C127 33.816 126.915 34.312 126.915 34.888C126.915 35.5173 127.043 36.088 127.299 36.6C127.555 37.112 127.923 37.5173 128.403 37.816C128.894 38.1147 129.475 38.264 130.147 38.264C130.52 38.264 130.856 38.2107 131.155 38.104C131.454 37.9973 131.715 37.8587 131.939 37.688C132.163 37.5067 132.35 37.32 132.499 37.128C132.616 37.032 132.734 36.984 132.851 36.984C132.958 36.984 133.048 37.0267 133.123 37.112C133.208 37.1973 133.251 37.2933 133.251 37.4C133.251 37.528 133.198 37.64 133.091 37.736C132.771 38.12 132.355 38.456 131.843 38.744C131.331 39.0213 130.771 39.16 130.163 39.16ZM139.114 30.632C139.626 30.632 140.095 30.6907 140.522 30.808C140.949 30.9147 141.29 31.064 141.546 31.256C141.813 31.448 141.946 31.656 141.946 31.88C141.946 31.9867 141.909 32.0933 141.834 32.2C141.759 32.296 141.658 32.344 141.53 32.344C141.402 32.344 141.295 32.312 141.21 32.248C141.135 32.184 141.055 32.1093 140.97 32.024C140.895 31.9387 140.783 31.8587 140.634 31.784C140.495 31.72 140.298 31.6613 140.042 31.608C139.786 31.5547 139.493 31.528 139.162 31.528C138.565 31.528 138.026 31.6773 137.546 31.976C137.066 32.2747 136.687 32.68 136.41 33.192C136.133 33.6933 135.994 34.2587 135.994 34.888C135.994 35.528 136.127 36.104 136.394 36.616C136.661 37.128 137.029 37.5333 137.498 37.832C137.967 38.12 138.517 38.264 139.146 38.264C139.573 38.264 139.903 38.2267 140.138 38.152C140.373 38.0773 140.575 37.992 140.746 37.896C140.949 37.7787 141.093 37.6667 141.178 37.56C141.274 37.4427 141.397 37.384 141.546 37.384C141.685 37.384 141.786 37.4267 141.85 37.512C141.925 37.5867 141.962 37.688 141.962 37.816C141.962 37.9867 141.834 38.1787 141.578 38.392C141.333 38.5947 140.991 38.776 140.554 38.936C140.117 39.0853 139.615 39.16 139.05 39.16C138.25 39.16 137.546 38.9733 136.938 38.6C136.341 38.2267 135.871 37.72 135.53 37.08C135.199 36.4293 135.034 35.6987 135.034 34.888C135.034 34.1093 135.205 33.4 135.546 32.76C135.887 32.12 136.362 31.608 136.97 31.224C137.589 30.8293 138.303 30.632 139.114 30.632ZM147.523 30.76C148.195 30.76 148.739 30.904 149.155 31.192C149.571 31.48 149.875 31.8693 150.067 32.36C150.27 32.8507 150.371 33.3947 150.371 33.992V38.52C150.371 38.648 150.323 38.76 150.227 38.856C150.131 38.952 150.019 39 149.891 39C149.742 39 149.625 38.952 149.539 38.856C149.454 38.76 149.411 38.648 149.411 38.52V33.992C149.411 33.5547 149.342 33.16 149.203 32.808C149.075 32.456 148.862 32.1787 148.563 31.976C148.265 31.7627 147.865 31.656 147.363 31.656C146.915 31.656 146.489 31.7627 146.083 31.976C145.689 32.1787 145.369 32.456 145.123 32.808C144.878 33.16 144.755 33.5547 144.755 33.992V38.52C144.755 38.648 144.707 38.76 144.611 38.856C144.515 38.952 144.403 39 144.275 39C144.126 39 144.009 38.952 143.923 38.856C143.838 38.76 143.795 38.648 143.795 38.52V27.64C143.795 27.512 143.838 27.4 143.923 27.304C144.019 27.208 144.137 27.16 144.275 27.16C144.414 27.16 144.526 27.208 144.611 27.304C144.707 27.4 144.755 27.512 144.755 27.64V32.824L144.387 33.384C144.409 33.0533 144.51 32.7333 144.691 32.424C144.883 32.104 145.129 31.8213 145.427 31.576C145.726 31.32 146.057 31.1227 146.419 30.984C146.782 30.8347 147.15 30.76 147.523 30.76ZM159.593 30.824C159.732 30.824 159.844 30.872 159.929 30.968C160.025 31.064 160.073 31.1813 160.073 31.32V38.52C160.073 38.648 160.025 38.76 159.929 38.856C159.833 38.952 159.721 39 159.593 39C159.454 39 159.337 38.952 159.241 38.856C159.156 38.76 159.113 38.648 159.113 38.52V36.616L159.385 36.488C159.385 36.7867 159.3 37.0907 159.129 37.4C158.969 37.7093 158.745 37.9973 158.457 38.264C158.169 38.5307 157.828 38.7493 157.433 38.92C157.049 39.08 156.633 39.16 156.185 39.16C155.46 39.16 154.809 38.9733 154.233 38.6C153.668 38.2267 153.22 37.7147 152.889 37.064C152.569 36.4133 152.409 35.6827 152.409 34.872C152.409 34.04 152.574 33.3093 152.905 32.68C153.236 32.04 153.684 31.5387 154.249 31.176C154.814 30.8133 155.454 30.632 156.169 30.632C156.628 30.632 157.054 30.712 157.449 30.872C157.854 31.032 158.206 31.2507 158.505 31.528C158.804 31.8053 159.033 32.1253 159.193 32.488C159.364 32.84 159.449 33.208 159.449 33.592L159.113 33.352V31.32C159.113 31.1813 159.156 31.064 159.241 30.968C159.337 30.872 159.454 30.824 159.593 30.824ZM156.265 38.264C156.83 38.264 157.332 38.12 157.769 37.832C158.206 37.5333 158.548 37.128 158.793 36.616C159.049 36.0933 159.177 35.512 159.177 34.872C159.177 34.2427 159.049 33.6773 158.793 33.176C158.548 32.6747 158.206 32.2747 157.769 31.976C157.332 31.6773 156.83 31.528 156.265 31.528C155.71 31.528 155.209 31.672 154.761 31.96C154.324 32.248 153.977 32.6427 153.721 33.144C153.476 33.6453 153.353 34.2213 153.353 34.872C153.353 35.512 153.476 36.0933 153.721 36.616C153.977 37.128 154.324 37.5333 154.761 37.832C155.198 38.12 155.7 38.264 156.265 38.264ZM166.448 30.632C167.152 30.632 167.712 30.776 168.128 31.064C168.555 31.3413 168.859 31.7253 169.04 32.216C169.232 32.696 169.328 33.2293 169.328 33.816V38.52C169.328 38.648 169.28 38.76 169.184 38.856C169.088 38.952 168.976 39 168.848 39C168.699 39 168.581 38.952 168.496 38.856C168.411 38.76 168.368 38.648 168.368 38.52V33.864C168.368 33.4373 168.299 33.048 168.16 32.696C168.021 32.344 167.792 32.0613 167.472 31.848C167.163 31.6347 166.752 31.528 166.24 31.528C165.781 31.528 165.344 31.6347 164.928 31.848C164.523 32.0613 164.192 32.344 163.936 32.696C163.68 33.048 163.552 33.4373 163.552 33.864V38.52C163.552 38.648 163.504 38.76 163.408 38.856C163.312 38.952 163.2 39 163.072 39C162.923 39 162.805 38.952 162.72 38.856C162.635 38.76 162.592 38.648 162.592 38.52V31.352C162.592 31.224 162.635 31.112 162.72 31.016C162.816 30.92 162.933 30.872 163.072 30.872C163.211 30.872 163.323 30.92 163.408 31.016C163.504 31.112 163.552 31.224 163.552 31.352V32.696L163.184 33.272C163.205 32.9307 163.312 32.6053 163.504 32.296C163.707 31.976 163.963 31.6933 164.272 31.448C164.581 31.192 164.923 30.9947 165.296 30.856C165.68 30.7067 166.064 30.632 166.448 30.632ZM172.77 38.52C172.77 38.648 172.722 38.76 172.626 38.856C172.53 38.952 172.418 39 172.29 39C172.151 39 172.034 38.952 171.938 38.856C171.853 38.76 171.81 38.648 171.81 38.52V31.16C171.81 31.032 171.853 30.92 171.938 30.824C172.034 30.728 172.151 30.68 172.29 30.68C172.429 30.68 172.541 30.728 172.626 30.824C172.722 30.92 172.77 31.032 172.77 31.16V38.52ZM172.29 29.608C172.066 29.608 171.895 29.56 171.778 29.464C171.671 29.3573 171.618 29.208 171.618 29.016V28.856C171.618 28.664 171.677 28.52 171.794 28.424C171.922 28.3173 172.093 28.264 172.306 28.264C172.509 28.264 172.663 28.3173 172.77 28.424C172.887 28.52 172.946 28.664 172.946 28.856V29.016C172.946 29.208 172.887 29.3573 172.77 29.464C172.663 29.56 172.503 29.608 172.29 29.608ZM178.864 30.632C179.376 30.632 179.845 30.6907 180.272 30.808C180.699 30.9147 181.04 31.064 181.296 31.256C181.563 31.448 181.696 31.656 181.696 31.88C181.696 31.9867 181.659 32.0933 181.584 32.2C181.509 32.296 181.408 32.344 181.28 32.344C181.152 32.344 181.045 32.312 180.96 32.248C180.885 32.184 180.805 32.1093 180.72 32.024C180.645 31.9387 180.533 31.8587 180.384 31.784C180.245 31.72 180.048 31.6613 179.792 31.608C179.536 31.5547 179.243 31.528 178.912 31.528C178.315 31.528 177.776 31.6773 177.296 31.976C176.816 32.2747 176.437 32.68 176.16 33.192C175.883 33.6933 175.744 34.2587 175.744 34.888C175.744 35.528 175.877 36.104 176.144 36.616C176.411 37.128 176.779 37.5333 177.248 37.832C177.717 38.12 178.267 38.264 178.896 38.264C179.323 38.264 179.653 38.2267 179.888 38.152C180.123 38.0773 180.325 37.992 180.496 37.896C180.699 37.7787 180.843 37.6667 180.928 37.56C181.024 37.4427 181.147 37.384 181.296 37.384C181.435 37.384 181.536 37.4267 181.6 37.512C181.675 37.5867 181.712 37.688 181.712 37.816C181.712 37.9867 181.584 38.1787 181.328 38.392C181.083 38.5947 180.741 38.776 180.304 38.936C179.867 39.0853 179.365 39.16 178.8 39.16C178 39.16 177.296 38.9733 176.688 38.6C176.091 38.2267 175.621 37.72 175.28 37.08C174.949 36.4293 174.784 35.6987 174.784 34.888C174.784 34.1093 174.955 33.4 175.296 32.76C175.637 32.12 176.112 31.608 176.72 31.224C177.339 30.8293 178.053 30.632 178.864 30.632Z" fill="#E37F7F"/>
<path d="M36.6856 5.45006C39.0295 6.67814 38.6357 6.12609 38.0547 8.40334C37.7893 9.44368 38.0661 9.93248 38.8298 10.6347C39.9413 11.6569 40.8293 11.7101 42.0816 10.9444C43.3532 10.1668 43.4312 10.259 44.4221 11.4243C44.9716 12.0705 45.4549 12.7715 45.9918 13.4288C46.2898 13.7937 46.2295 14.0677 45.9318 14.4037C45.4518 14.9455 45.0291 15.5368 44.563 16.0913C44.2868 16.4199 44.2282 16.7376 44.457 17.1126C44.5994 17.3461 44.759 17.5878 44.8227 17.847C45.1761 19.2844 46.1255 19.5501 47.5011 19.4665C49.2893 19.3579 48.9238 19.1609 49.4269 20.8945C49.6687 21.7274 49.7707 22.5992 49.9711 23.4452C50.074 23.8796 49.8965 24.0923 49.5255 24.2552C48.9285 24.5175 48.3566 24.8422 47.7467 25.0682C47.1601 25.2855 46.9506 25.6253 46.9815 26.2503C47.0539 27.7149 47.0248 27.7157 45.576 27.7141C43.4585 27.7117 41.5739 28.3299 39.9939 29.7652C39.8703 29.8775 39.7537 30.0325 39.4382 29.9509C40.4234 23.935 38.4814 19.0487 33.3478 15.5856C30.4699 13.6442 27.2039 13.0437 23.7679 13.5682C17.0892 14.5877 10.7758 21.116 12.4153 29.9454C12.1765 30.0981 12.047 29.8943 11.9115 29.7751C10.143 28.2194 8.05999 27.5654 5.72679 27.7426C4.97453 27.7998 4.73321 27.5128 4.87508 26.8735C5.13512 25.7016 4.59614 25.1702 3.53433 24.7549C1.84368 24.0935 1.87035 24.0212 2.13256 22.2839C2.25168 21.4947 2.49365 20.7359 2.71469 19.9708C2.83406 19.5577 3.0731 19.4176 3.4817 19.4264C4.21043 19.442 4.94018 19.4169 5.66861 19.4386C6.10276 19.4515 6.38662 19.2985 6.54526 18.8924C6.65382 18.6145 6.74734 18.3108 6.93091 18.0851C7.83274 16.9763 7.4834 16.1225 6.59428 15.1433C5.24808 13.6608 5.41077 14.1628 6.5071 12.5924C6.96239 11.9403 7.53416 11.369 8.02927 10.7426C8.35858 10.326 8.68579 10.32 9.1336 10.5704C9.76679 10.9245 10.4436 11.2011 11.0896 11.5339C11.4561 11.7227 11.7392 11.6713 12.0417 11.3979C12.4495 11.0294 12.8564 10.6376 13.3286 10.3666C14.0319 9.96274 14.1263 9.44556 13.8923 8.74003C13.7049 8.17486 13.6057 7.5816 13.4474 7.00621C13.3372 6.60577 13.458 6.34809 13.8287 6.15115C14.8926 5.58594 15.9719 5.05636 17.092 4.60699C17.465 4.45736 17.6962 4.55529 17.9232 4.86328C18.3676 5.46619 18.8568 6.03686 19.2985 6.64165C19.558 6.99705 19.8545 7.09913 20.2728 6.97583C20.7296 6.84122 21.1937 6.65743 21.6595 6.64191C22.6845 6.60776 22.9339 6.01185 23.1488 5.13801C23.7662 2.62776 23.084 3.07339 25.7929 3.00284C26.3705 2.9878 26.9506 3.03878 27.527 3.00925C28.1338 2.97816 28.3738 3.27333 28.4694 3.82198C28.5886 4.50678 28.7937 5.17769 28.8973 5.86413C28.9629 6.29866 29.2008 6.4426 29.5824 6.51645C30.2474 6.64512 30.9163 6.76711 31.5671 6.94948C32.0285 7.07879 32.3312 6.95983 32.6046 6.59335C33.0375 6.01306 33.5119 5.46295 33.939 4.87876C34.1914 4.53356 34.4627 4.46837 34.8425 4.64262C35.435 4.91441 36.0374 5.16493 36.6856 5.45006Z" fill="#E37F7F"/>
<path d="M47.0763 43.9431C44.8554 44.0883 42.8711 43.6848 41.1589 42.337C40.6021 41.8986 40.1021 41.4057 39.7444 40.8159C39.4162 40.2747 38.9728 40.0983 38.3639 40.1053C37.2226 40.1184 36.0811 40.099 34.9396 40.0986C28.3191 40.0964 21.6985 40.1128 15.0783 40.0752C14.1416 40.0699 13.5618 40.3415 13.0075 41.0838C9.97948 45.1391 3.06989 44.9179 0.313467 40.7135C0.181778 40.5126 -0.00862556 40.3304 0.0106627 40.0465C0.21845 39.7909 0.520216 39.9 0.77857 39.8973C2.27502 39.8822 3.77171 39.8757 5.26821 39.8843C6.06896 39.8888 6.60429 39.6517 6.98256 38.8699C8.10307 36.5541 8.122 36.5818 6.99155 34.1755C6.65349 33.4559 6.22294 33.1587 5.37424 33.1971C3.80515 33.2682 2.2298 33.2235 0.657296 33.2064C-0.0802618 33.1984 -0.157117 33.036 0.22818 32.4265C2.45017 28.912 7.10686 28.0904 10.7312 30.0109C11.8351 30.5959 12.7456 31.4071 13.4218 32.4383C13.682 32.8349 14.0175 32.9875 14.4953 32.9862C22.0792 32.9655 29.6632 32.9535 37.2471 32.9411C37.4496 32.9408 37.6526 32.9518 37.8544 32.9682C38.6902 33.0358 39.2773 32.8065 39.8268 32.078C43.0336 27.8258 50.1069 28.0428 52.7654 32.4266C52.8777 32.6117 53.0358 32.782 52.9928 33.0208C52.7162 33.3003 52.3671 33.2134 52.0512 33.2151C50.504 33.2234 48.956 33.2401 47.4096 33.2029C46.7706 33.1875 46.404 33.3812 46.113 33.9561C44.7345 36.6783 44.725 36.6659 46.2235 39.3133C46.5063 39.8129 46.9476 39.8772 47.4419 39.8791C48.9385 39.885 50.4351 39.8795 51.9316 39.889C52.2544 39.8911 52.5895 39.8276 52.8975 39.9776C52.7845 41.3866 50.1399 43.6834 47.0763 43.9431Z" fill="#CD4550"/>
<rect x="13" y="36" width="27" height="1" rx="0.5" fill="#3B2E63"/>
</svg>
