<svg width="111" height="21" viewBox="0 0 111 21" fill="none" xmlns="http://www.w3.org/2000/svg">
<path d="M8.08019 4.89712C9.15684 2.96571 9.69517 2 10.5 2C11.3048 2 11.8432 2.96571 12.9198 4.89712L13.1984 5.3968C13.5043 5.94564 13.6573 6.22007 13.8958 6.40114C14.1343 6.5822 14.4314 6.64942 15.0255 6.78384L15.5664 6.90622C17.6571 7.37927 18.7025 7.6158 18.9512 8.41557C19.1999 9.21535 18.4872 10.0487 17.0619 11.7154L16.6932 12.1466C16.2881 12.6203 16.0856 12.8571 15.9945 13.1501C15.9034 13.443 15.934 13.759 15.9953 14.3909L16.051 14.9662C16.2665 17.19 16.3742 18.3019 15.7231 18.7962C15.072 19.2905 14.0932 18.8398 12.1357 17.9385L11.6292 17.7053C11.073 17.4492 10.7948 17.3211 10.5 17.3211C10.2052 17.3211 9.92704 17.4492 9.37076 17.7053L8.86432 17.9385C6.90677 18.8398 5.928 19.2905 5.27688 18.7962C4.62575 18.3019 4.7335 17.19 4.94899 14.9662L5.00474 14.3909C5.06597 13.759 5.09659 13.443 5.00548 13.1501C4.91438 12.8571 4.71186 12.6203 4.30683 12.1466L3.93808 11.7154C2.51276 10.0487 1.8001 9.21535 2.04881 8.41557C2.29751 7.6158 3.34288 7.37927 5.43361 6.90622L5.9745 6.78384C6.56862 6.64942 6.86568 6.5822 7.1042 6.40114C7.34272 6.22007 7.4957 5.94565 7.80165 5.3968L8.08019 4.89712Z" fill="white"/>
<path d="M31.0802 4.89712C32.1568 2.96571 32.6952 2 33.5 2C34.3048 2 34.8432 2.96571 35.9198 4.89712L36.1984 5.3968C36.5043 5.94564 36.6573 6.22007 36.8958 6.40114C37.1343 6.5822 37.4314 6.64942 38.0255 6.78384L38.5664 6.90622C40.6571 7.37927 41.7025 7.6158 41.9512 8.41557C42.1999 9.21535 41.4872 10.0487 40.0619 11.7154L39.6932 12.1466C39.2881 12.6203 39.0856 12.8571 38.9945 13.1501C38.9034 13.443 38.934 13.759 38.9953 14.3909L39.051 14.9662C39.2665 17.19 39.3742 18.3019 38.7231 18.7962C38.072 19.2905 37.0932 18.8398 35.1357 17.9385L34.6292 17.7053C34.073 17.4492 33.7948 17.3211 33.5 17.3211C33.2052 17.3211 32.927 17.4492 32.3708 17.7053L31.8643 17.9385C29.9068 18.8398 28.928 19.2905 28.2769 18.7962C27.6258 18.3019 27.7335 17.19 27.949 14.9662L28.0047 14.3909C28.066 13.759 28.0966 13.443 28.0055 13.1501C27.9144 12.8571 27.7119 12.6203 27.3068 12.1466L26.9381 11.7154C25.5128 10.0487 24.8001 9.21535 25.0488 8.41557C25.2975 7.6158 26.3429 7.37927 28.4336 6.90622L28.9745 6.78384C29.5686 6.64942 29.8657 6.5822 30.1042 6.40114C30.3427 6.22007 30.4957 5.94565 30.8016 5.3968L31.0802 4.89712Z" fill="white"/>
<path d="M54.0802 4.89712C55.1568 2.96571 55.6952 2 56.5 2C57.3048 2 57.8432 2.96571 58.9198 4.89712L59.1984 5.3968C59.5043 5.94564 59.6573 6.22007 59.8958 6.40114C60.1343 6.5822 60.4314 6.64942 61.0255 6.78384L61.5664 6.90622C63.6571 7.37927 64.7025 7.6158 64.9512 8.41557C65.1999 9.21535 64.4872 10.0487 63.0619 11.7154L62.6932 12.1466C62.2881 12.6203 62.0856 12.8571 61.9945 13.1501C61.9034 13.443 61.934 13.759 61.9953 14.3909L62.051 14.9662C62.2665 17.19 62.3742 18.3019 61.7231 18.7962C61.072 19.2905 60.0932 18.8398 58.1357 17.9385L57.6292 17.7053C57.073 17.4492 56.7948 17.3211 56.5 17.3211C56.2052 17.3211 55.927 17.4492 55.3708 17.7053L54.8643 17.9385C52.9068 18.8398 51.928 19.2905 51.2769 18.7962C50.6258 18.3019 50.7335 17.19 50.949 14.9662L51.0047 14.3909C51.066 13.759 51.0966 13.443 51.0055 13.1501C50.9144 12.8571 50.7119 12.6203 50.3068 12.1466L49.9381 11.7154C48.5128 10.0487 47.8001 9.21535 48.0488 8.41557C48.2975 7.6158 49.3429 7.37927 51.4336 6.90622L51.9745 6.78384C52.5686 6.64942 52.8657 6.5822 53.1042 6.40114C53.3427 6.22007 53.4957 5.94565 53.8016 5.3968L54.0802 4.89712Z" fill="white"/>
<path d="M77.0802 4.89712C78.1568 2.96571 78.6952 2 79.5 2C80.3048 2 80.8432 2.96571 81.9198 4.89712L82.1984 5.3968C82.5043 5.94564 82.6573 6.22007 82.8958 6.40114C83.1343 6.5822 83.4314 6.64942 84.0255 6.78384L84.5664 6.90622C86.6571 7.37927 87.7025 7.6158 87.9512 8.41557C88.1999 9.21535 87.4872 10.0487 86.0619 11.7154L85.6932 12.1466C85.2881 12.6203 85.0856 12.8571 84.9945 13.1501C84.9034 13.443 84.934 13.759 84.9953 14.3909L85.051 14.9662C85.2665 17.19 85.3742 18.3019 84.7231 18.7962C84.072 19.2905 83.0932 18.8398 81.1357 17.9385L80.6292 17.7053C80.073 17.4492 79.7948 17.3211 79.5 17.3211C79.2052 17.3211 78.927 17.4492 78.3708 17.7053L77.8643 17.9385C75.9068 18.8398 74.928 19.2905 74.2769 18.7962C73.6258 18.3019 73.7335 17.19 73.949 14.9662L74.0047 14.3909C74.066 13.759 74.0966 13.443 74.0055 13.1501C73.9144 12.8571 73.7119 12.6203 73.3068 12.1466L72.9381 11.7154C71.5128 10.0487 70.8001 9.21535 71.0488 8.41557C71.2975 7.6158 72.3429 7.37927 74.4336 6.90622L74.9745 6.78384C75.5686 6.64942 75.8657 6.5822 76.1042 6.40114C76.3427 6.22007 76.4957 5.94565 76.8016 5.3968L77.0802 4.89712Z" fill="white"/>
<path d="M100.08 4.89712C101.157 2.96571 101.695 2 102.5 2C103.305 2 103.843 2.96571 104.92 4.89712L105.198 5.3968C105.504 5.94564 105.657 6.22007 105.896 6.40114C106.134 6.5822 106.431 6.64942 107.025 6.78384L107.566 6.90622C109.657 7.37927 110.702 7.6158 110.951 8.41557C111.2 9.21535 110.487 10.0487 109.062 11.7154L108.693 12.1466C108.288 12.6203 108.086 12.8571 107.995 13.1501C107.903 13.443 107.934 13.759 107.995 14.3909L108.051 14.9662C108.267 17.19 108.374 18.3019 107.723 18.7962C107.072 19.2905 106.093 18.8398 104.136 17.9385L103.629 17.7053C103.073 17.4492 102.795 17.3211 102.5 17.3211C102.205 17.3211 101.927 17.4492 101.371 17.7053L100.864 17.9385C98.9068 18.8398 97.928 19.2905 97.2769 18.7962C96.6258 18.3019 96.7335 17.19 96.949 14.9662L97.0047 14.3909C97.066 13.759 97.0966 13.443 97.0055 13.1501C96.9144 12.8571 96.7119 12.6203 96.3068 12.1466L95.9381 11.7154C94.5128 10.0487 93.8001 9.21535 94.0488 8.41557C94.2975 7.6158 95.3429 7.37927 97.4336 6.90622L97.9745 6.78384C98.5686 6.64942 98.8657 6.5822 99.1042 6.40114C99.3427 6.22007 99.4957 5.94565 99.8016 5.3968L100.08 4.89712Z" fill="white"/>
</svg>
