<svg width="20" height="20" viewBox="0 0 20 20" fill="none" xmlns="http://www.w3.org/2000/svg">
<path d="M15.5297 13.0588L16.9601 8.76766C18.2097 5.01901 18.8344 3.14468 17.845 2.15529C16.8556 1.1659 14.9813 1.79067 11.2327 3.04022L6.94156 4.47059C3.91603 5.4791 2.40327 5.98336 1.97338 6.72281C1.56443 7.42626 1.56443 8.29507 1.97338 8.99852C2.40327 9.73797 3.91603 10.2422 6.94156 11.2507C7.31651 11.3757 7.73834 11.2865 8.01911 11.0083L12.6071 6.46279C12.8653 6.20706 13.2818 6.209 13.5375 6.46712C13.7933 6.72523 13.7913 7.14179 13.5332 7.39751L9.01926 11.8696C8.7098 12.1762 8.61183 12.6455 8.74959 13.0588C9.75809 16.0843 10.2624 17.5971 11.0018 18.0269C11.7053 18.4359 12.5741 18.4359 13.2775 18.0269C14.017 17.5971 14.5212 16.0843 15.5297 13.0588Z" fill="white"/>
</svg>
