<svg width="231" height="231" viewBox="0 0 231 231" fill="none" xmlns="http://www.w3.org/2000/svg">
<path d="M175.487 191.324C173.56 192.175 171.624 192.513 169.606 192.513C130.392 192.506 91.1775 192.485 51.9634 192.534C45.975 192.541 39.6425 187.727 39.6372 180.201C39.6108 142.566 39.6216 104.931 39.6285 67.2964C39.6296 61.1689 44.873 55.8784 50.9793 55.8728C70.3796 55.8551 89.7799 55.8641 109.18 55.8654C110.744 55.8654 111.023 56.1425 111.063 57.6815C111.071 57.9821 111.066 58.2831 111.063 58.5838C111.048 60.1266 110.684 60.5053 109.124 60.5072C103.334 60.5143 97.5439 60.5091 91.7539 60.5078C78.858 60.5051 65.9621 60.4989 53.0662 60.5043C51.9038 60.5048 50.7263 60.39 49.5814 60.6394C46.6865 61.27 44.7763 63.4421 44.2943 66.5236C44.1195 67.6411 44.0607 68.757 44.0623 69.8857C44.073 77.7436 44.0838 85.6015 44.0483 93.4593C44.0438 94.4672 44.2412 94.8434 45.3684 94.9595C53.2039 95.7661 60.5253 98.1623 66.8191 102.975C72.1887 107.081 76.8629 111.896 80.1959 117.902C82.1084 121.348 84.0016 124.824 86.4205 127.959C88.903 131.177 91.8416 133.876 95.4577 135.811C97.6173 136.966 99.5891 138.418 101.417 140.049C105.687 143.861 106.148 149.527 102.611 154.114C100.616 156.702 97.9375 158.448 95.2218 160.129C89.8546 163.451 84.3675 166.592 79.2906 170.358C73.4084 174.721 68.2618 179.774 64.8982 186.408C64.6655 186.867 64.3346 187.3 64.3384 187.868C64.6492 188.196 65.049 188.052 65.4005 188.053C79.8003 188.061 94.2002 188.05 108.6 188.08C109.659 188.082 110.007 187.802 110.036 186.697C110.157 182.045 111.752 177.805 114.035 173.828C117.041 168.595 120.924 163.988 124.666 159.282C127.331 155.929 129.926 152.542 131.789 148.629C134.788 142.327 131.656 136.542 126.73 133.713C123.536 131.877 119.97 131.053 116.482 130.022C112.875 128.955 109.292 127.822 106.146 125.673C103.249 123.694 101.183 121.098 100.472 117.585C99.8578 114.556 100.625 111.786 102.167 109.183C103.982 106.121 106.465 103.691 109.342 101.644C111.606 100.032 113.881 98.4364 116.184 96.8815C116.851 96.4314 116.948 96.0679 116.555 95.3417C114.092 90.7853 112.278 85.9886 111.636 80.8217C111.134 76.783 111.215 72.7346 111.84 68.7076C112.953 61.536 115.74 55.082 120.375 49.4941C126.816 41.7278 135.055 36.9804 145.013 35.321C155.352 33.598 165.081 35.4087 173.898 41.0797C183.608 47.3252 189.575 56.2341 191.613 67.6504C193.199 76.5379 192.289 85.1897 188.338 93.3325C182.947 104.441 174.115 111.554 162.237 114.866C157.976 116.054 153.602 116.549 149.197 116.22C140.526 115.573 132.801 112.461 126.077 106.915C123.695 104.95 121.538 102.761 119.552 100.258C116.512 102.164 113.546 104.058 110.812 106.294C109.473 107.388 108.174 108.519 107.073 109.873C103.449 114.332 104.071 118.693 108.83 121.993C111.696 123.979 115.008 124.859 118.293 125.793C122.597 127.017 126.905 128.22 130.582 130.932C135.268 134.388 137.726 138.99 137.427 144.856C137.265 148.037 135.833 150.849 134.259 153.559C132.458 156.659 130.06 159.326 127.929 162.188C124.207 167.185 120.075 171.898 117.179 177.476C115.728 180.269 114.87 183.249 114.473 186.364C114.276 187.909 114.413 188.061 115.944 188.061C133.766 188.062 151.587 188.013 169.408 188.092C174.646 188.115 178.152 184.59 178.146 179.368C178.119 156.772 178.134 134.176 178.134 111.58C178.134 111.204 178.127 110.828 178.137 110.452C178.175 109.113 178.942 108.262 180.155 108.206C181.362 108.15 182.39 109.018 182.551 110.27C182.608 110.714 182.577 111.171 182.577 111.622C182.578 134.293 182.547 156.964 182.601 179.635C182.613 185.027 180.171 188.769 175.487 191.324ZM69.1866 110.715C67.8515 109.393 66.5592 108.007 65.0284 106.917C59.2986 102.837 52.9829 100.238 45.9373 99.5384C44.0671 99.3528 44.0681 99.3355 44.0681 101.233C44.0679 122.135 44.0679 143.036 44.0679 163.938C44.068 169.201 43.9706 174.466 44.0996 179.726C44.2024 183.915 46.2262 186.991 50.6059 187.85C53.1336 188.346 55.7037 187.923 58.2481 188.077C59.1544 188.132 59.5765 187.766 59.9358 186.974C62.7041 180.866 66.6424 175.632 71.6188 171.124C77.1394 166.124 83.3001 162.056 89.6732 158.268C92.5454 156.561 95.5233 154.993 97.9667 152.661C100.846 149.913 101.861 145.906 97.8272 142.833C96.0314 141.465 94.2354 140.112 92.2529 139.024C90.2303 137.913 88.4234 136.519 86.7655 134.916C83.2983 131.563 80.7198 127.554 78.2288 123.474C75.5345 119.062 73.3421 114.293 69.1866 110.715ZM175.139 103.288C177.515 101.24 179.545 98.8801 181.335 96.3151C186.907 88.3303 188.705 79.465 187.398 69.9034C186.747 65.1387 185.463 60.5448 182.846 56.4719C174.368 43.2811 162.069 37.9895 146.738 39.6522C139.52 40.435 133.181 43.5892 127.678 48.3863C119.664 55.3723 115.919 64.2837 115.571 74.7781C115.445 78.5827 116.251 82.2218 117.395 85.8084C120.033 94.0792 124.623 100.966 131.902 105.855C137.74 109.776 144.146 111.967 151.268 111.824C153.601 111.777 155.898 111.486 158.19 111.124C164.521 110.124 170.237 107.773 175.139 103.288Z" fill="#CD464B"/>
<path d="M139.981 90.1165C136.841 87.1948 133.705 84.3802 131.188 80.9676C128.417 77.2114 126.949 73.01 127.18 68.3446C127.495 61.986 132.242 56.0945 138.566 55.1741C143.622 54.4383 147.697 56.1149 150.983 59.9282C151.151 60.1236 151.28 60.3673 151.888 60.741C152.396 60.0938 152.848 59.3923 153.42 58.8077C160.141 51.9403 171.549 54.682 175.091 63.4116C177.202 68.612 176.352 73.5584 173.853 78.3626C171.894 82.1278 168.896 85.0446 165.902 87.9571C162.048 91.7065 157.771 94.9858 153.925 98.7473C152.658 99.987 150.564 99.9305 149.297 98.7605C146.205 95.9043 143.124 93.0351 139.981 90.1165ZM131.983 66.8897C131.655 68.452 131.694 70.029 131.929 71.5877C132.44 74.9877 134.3 77.69 136.484 80.2279C139.831 84.1152 143.846 87.3021 147.52 90.8451C148.916 92.191 150.36 93.4871 151.877 94.8941C156.4 90.1575 161.55 86.2726 165.929 81.5616C167.995 79.3397 169.748 76.9001 170.834 74.062C172.408 69.9445 172.373 65.9953 169.264 62.4755C166.059 58.8464 160.779 58.3945 157.024 61.4455C155.579 62.6197 154.541 64.1538 153.357 65.5582C152.107 67.0411 150.969 67.0562 149.739 65.5499C149.074 64.7356 148.464 63.8767 147.802 63.06C145.355 60.0413 142.181 58.9873 138.454 59.8886C134.895 60.7495 132.865 63.2018 131.983 66.8897Z" fill="#CD464B"/>
</svg>
