<svg width="202" height="202" viewBox="0 0 202 202" fill="none" xmlns="http://www.w3.org/2000/svg">
<path d="M66.6439 144.636C55.3602 136.058 48.2584 124.868 45.1319 111.145C44.4186 108.014 44.0593 104.831 43.8976 101.611C43.318 90.0648 46.0277 79.34 51.9316 69.4496C57.1184 60.7607 64.0807 53.8615 72.9614 48.8719C79.117 45.4134 85.6605 43.2502 92.593 42.184C96.8564 41.5283 101.163 41.4377 105.455 41.7814C115.724 42.6037 125.248 45.6882 133.804 51.5065C144.323 58.6599 151.584 68.3183 155.704 80.3381C157.174 84.6279 158.111 89.033 158.499 93.5644C159.042 99.8976 158.523 106.135 157.066 112.308C157.036 112.435 156.985 112.557 156.946 112.683C156.511 114.085 155.997 114.502 155.004 114.256C154.129 114.04 153.392 112.867 153.561 111.856C153.819 110.307 154.131 108.766 154.409 107.22C155.109 103.33 155.307 99.428 155.042 95.471C154.624 89.218 153.199 83.24 150.691 77.5051C145.231 65.0183 136.332 55.9008 123.968 50.1632C118.865 47.7953 113.49 46.3503 107.932 45.6738C96.5989 44.2943 85.7981 46.1932 75.7257 51.5813C61.3875 59.2514 52.5664 71.2027 48.8141 86.969C48.6216 87.7779 48.7363 88.1477 49.7167 88.1395C54.812 88.0973 59.9079 88.112 65.0035 88.1329C65.6945 88.1358 66.2265 87.9317 66.6057 87.3682C69.6058 82.9094 73.4414 79.1294 76.7249 74.9028C78.7778 72.2603 80.4608 69.4028 80.8979 66.0013C81.1355 64.1518 81.2345 62.2846 81.4085 60.4266C81.5121 59.3197 81.5412 58.1936 81.7763 57.1136C82.3765 54.3555 84.6588 52.9569 87.4587 53.465C92.3064 54.3447 95.043 57.4656 96.5152 61.9302C97.8 65.8262 97.304 69.6978 96.2479 73.5425C95.727 75.4388 95.1406 77.3171 94.5915 79.2058C94.2099 80.5184 94.4138 80.8021 95.7744 80.804C101.1 80.8114 106.428 80.7314 111.751 80.8392C114.977 80.9046 117.279 82.6726 118.563 85.5682C119.768 88.2863 119.571 91.0034 117.56 93.3081C116.826 94.1497 116.864 94.5123 117.57 95.3212C119.927 98.0216 119.478 102.423 116.662 105.105C116.127 105.615 115.669 105.981 115.993 106.895C116.286 107.721 115.137 109.071 114.262 109.239C113.825 109.323 113.568 109.073 113.346 108.792C112.475 107.694 111.342 107.324 109.963 107.346C106.939 107.394 103.914 107.357 100.889 107.352C100.561 107.351 100.228 107.363 99.9057 107.312C98.8039 107.139 98.1095 106.348 98.1837 105.386C98.261 104.384 98.9934 103.715 100.136 103.707C103.259 103.685 106.383 103.699 109.506 103.696C110.424 103.696 111.336 103.692 112.251 103.519C114.115 103.168 115.637 101.348 115.522 99.5177C115.406 97.6795 113.772 96.1661 111.786 96.1508C108.039 96.1219 104.291 96.1504 100.543 96.1331C99.174 96.1268 98.3493 95.1569 98.5846 93.903C98.7451 93.0477 99.4914 92.508 100.681 92.4706C101.864 92.4334 103.048 92.4553 104.231 92.4543C106.73 92.452 109.229 92.4648 111.727 92.4467C113.946 92.4306 115.648 90.8511 115.724 88.7782C115.799 86.709 114.062 84.7022 111.992 84.5035C111.373 84.444 110.744 84.4639 110.12 84.4637C103.939 84.4611 97.7589 84.4619 91.5784 84.4614C91.3483 84.4614 91.117 84.4719 90.8883 84.4528C90.0191 84.3802 89.2217 84.1101 88.9689 83.1873C88.7175 82.2695 89.0771 81.5026 89.8914 80.9946C90.3486 80.7094 90.5428 80.2774 90.689 79.7975C91.8246 76.0679 93.125 72.3634 93.5653 68.4772C94.0324 64.3557 92.9615 60.1212 89.216 57.8907C88.3588 57.3802 87.4314 57.0676 86.414 57.0848C85.7605 57.0957 85.347 57.3835 85.2806 58.0603C85.0825 60.0805 84.7943 62.0979 84.719 64.1231C84.5612 68.3693 83.0768 72.1097 80.6972 75.5638C78.7695 78.3621 76.438 80.8187 74.2203 83.3738C72.085 85.834 70.2154 88.4965 68.3795 91.1825C68.0546 91.658 67.9185 92.1752 67.9191 92.7593C67.9293 101.701 67.9334 110.643 67.9177 119.586C67.9162 120.487 68.2983 121.068 69.0535 121.49C73.512 123.983 78.2075 125.508 83.3987 125.412C88.8213 125.311 94.2472 125.38 99.6716 125.394C101.475 125.398 103.183 125.031 104.82 124.284C106.181 123.663 106.588 123.935 106.592 125.436C106.597 127.595 106.588 127.603 104.577 128.312C103.14 128.819 101.664 129.074 100.139 129.073C94.8793 129.066 89.6158 128.948 84.3601 129.097C78.7891 129.255 73.6273 127.88 68.7248 125.408C66.9401 124.508 65.1661 124.042 63.1611 124.125C60.5028 124.236 57.8365 124.148 55.1736 124.16C54.7962 124.161 54.3806 124.037 53.9586 124.435C54.4802 125.673 55.2367 126.817 55.9925 127.943C64.0663 139.972 75.1045 147.818 89.1782 151.329C92.04 152.043 94.9592 152.409 97.9075 152.653C104.038 153.161 110.009 152.392 115.898 150.747C116.836 150.485 117.754 150.409 118.681 150.817C119.289 151.084 119.62 151.524 119.675 152.165C119.729 152.792 119.382 153.222 118.889 153.544C118.271 153.948 117.538 154.027 116.848 154.229C111.877 155.679 106.806 156.515 101.626 156.466C88.7091 156.342 77.0718 152.371 66.6439 144.636ZM49.2693 112.809C49.9435 115.144 50.7158 117.442 51.7187 119.663C52.0494 120.395 52.4625 120.699 53.2855 120.672C56.4384 120.567 59.5934 120.525 62.7478 120.463C64.0408 120.438 64.2377 120.254 64.2381 118.973C64.2407 110.392 64.2402 101.811 64.2379 93.2305C64.2375 91.9166 64.1287 91.8068 62.8439 91.8057C58.57 91.8021 54.296 91.8032 50.022 91.8017C47.8137 91.8009 47.816 91.8003 47.5823 93.9501C47.5399 94.3408 47.4364 94.7271 47.4195 95.1179C47.163 101.051 47.6075 106.914 49.2693 112.809Z" fill="#CD464B"/>
<path d="M149.417 146.658C147.132 148.868 144.397 150.363 141.965 152.266C133.909 158.569 124.783 162.594 114.803 164.698C110.982 165.504 107.106 165.869 103.193 166.004C91.3331 166.413 80.1677 163.784 69.771 158.177C51.9579 148.571 40.8582 133.71 36.0431 114.121C34.6283 108.365 34.0379 102.483 34.2836 96.5606C34.8961 81.7966 39.5588 68.483 48.8243 56.8792C55.655 48.3248 64.0516 41.776 74.0853 37.3729C79.6692 34.9225 85.4884 33.2983 91.539 32.4449C94.635 32.0082 97.743 31.779 100.848 31.7764C109.999 31.7688 118.83 33.4937 127.308 36.9885C137.321 41.1154 145.791 47.3514 152.733 55.6334C160.188 64.5271 164.881 74.7629 167.101 86.1279C168.104 91.2575 168.568 96.4576 168.31 101.683C167.791 112.199 164.957 122.09 160.01 131.378C159.819 131.735 159.658 132.287 159.127 132.136C158.612 131.99 158.72 131.436 158.74 131.027C158.809 129.587 158.815 128.151 158.739 126.711C158.679 125.585 159.219 124.606 159.648 123.621C162.037 118.137 163.472 112.399 164.229 106.485C164.701 102.798 164.863 99.0753 164.615 95.3766C163.697 81.7038 159.193 69.401 150.427 58.7359C141.675 48.0883 130.702 40.9431 117.347 37.4971C113.216 36.4311 109.019 35.7842 104.75 35.5494C94.0244 34.9596 83.7484 36.852 74.0553 41.4252C66.8332 44.8326 60.5129 49.5848 55.0144 55.413C46.5114 64.426 41.1996 75.029 38.8895 87.1919C37.9078 92.3607 37.6479 97.5763 37.9911 102.777C38.8495 115.791 43.2213 127.532 51.3038 137.84C55.6361 143.366 60.5526 148.266 66.5134 152.024C74.1476 156.837 82.3626 160.218 91.3132 161.631C96.5461 162.458 101.804 162.62 107.099 162.136C116.437 161.281 125.103 158.405 133.24 153.819C133.46 153.694 133.747 153.647 133.739 153.209C132.78 153.127 131.816 153.02 130.849 152.965C123.732 152.563 117.921 149.578 113.395 144.099C110.867 141.039 109.065 137.578 108.262 133.682C107.047 127.791 107.768 122.194 110.766 116.862C114.063 110.999 118.684 106.849 125.183 104.952C138.927 100.94 153.467 108.441 156.924 122.887C158.927 131.257 156.584 138.642 150.998 145.07C150.524 145.615 149.98 146.098 149.417 146.658ZM111.549 131.784C111.594 131.942 111.651 132.097 111.685 132.258C114.081 143.739 124.775 151.217 136.11 149.287C146.726 147.479 155.267 137.268 153.835 126.164C153.307 122.074 151.902 118.356 149.258 115.249C144.046 109.123 137.316 106.66 129.368 107.779C122.819 108.701 117.85 112.238 114.371 117.749C111.715 121.957 110.751 126.638 111.549 131.784Z" fill="#CD464B"/>
<path d="M97.014 115.382C97.5791 114.837 98.1996 114.728 98.8829 114.732C101.739 114.748 104.595 114.738 107.45 114.74C108.895 114.74 109.499 115.134 109.546 116.098C109.6 117.2 108.495 118.397 107.32 118.416C105.286 118.45 103.25 118.429 101.215 118.43C100.329 118.43 99.4414 118.454 98.5564 118.42C96.7201 118.35 96.065 116.564 97.014 115.382Z" fill="#CD464B"/>
<path d="M162.002 42.7139C161.875 43.1768 161.694 43.5239 161.412 43.8077C159.515 45.7115 157.63 47.6264 155.711 49.5072C155.093 50.1135 154.341 50.4429 153.488 49.9203C152.766 49.4775 152.484 48.8104 152.659 47.985C152.748 47.5651 152.981 47.1983 153.288 46.891C155.12 45.0619 156.95 43.2314 158.788 41.4085C159.117 41.0832 159.498 40.8384 159.972 40.7524C161.285 40.5142 162.008 41.176 162.002 42.7139Z" fill="#CD464B"/>
<path d="M153.648 150.918C153.42 150.675 153.224 150.496 153.07 150.286C152.411 149.387 152.477 148.35 153.22 147.722C153.973 147.086 154.846 147.142 155.677 147.953C157.578 149.808 159.476 151.666 161.334 153.563C162.532 154.788 162.167 156.474 160.671 156.817C159.79 157.019 159.171 156.506 158.605 155.936C156.965 154.285 155.334 152.624 153.648 150.918Z" fill="#CD464B"/>
<path d="M44.0014 155.66C43.7181 155.941 43.5005 156.191 43.2479 156.399C42.454 157.052 41.5567 157.016 40.8563 156.321C40.2169 155.687 40.1092 154.58 40.7663 153.905C42.8056 151.811 44.8763 149.746 46.9829 147.72C47.6197 147.108 48.4319 147.109 49.1332 147.708C49.8183 148.292 49.9866 149.036 49.5247 149.827C48.6493 151.326 47.2153 152.328 46.0794 153.597C45.4453 154.306 44.7299 154.941 44.0014 155.66Z" fill="#CD464B"/>
<path d="M46.2597 44.0882C47.2104 45.0456 48.1255 45.9407 49.0094 46.8655C49.5202 47.4 49.9133 48.0231 49.7124 48.8106C49.3708 50.1501 47.8545 50.6565 46.8479 49.6811C44.7989 47.6958 42.8111 45.6457 40.8446 43.5779C40.1364 42.8332 40.2055 41.8342 40.8536 41.1796C41.4781 40.5489 42.6231 40.5108 43.3538 41.1896C44.3385 42.1044 45.2615 43.0855 46.2597 44.0882Z" fill="#CD464B"/>
<path d="M123.328 126.8C124.836 128.319 126.32 129.764 127.743 131.265C128.413 131.972 128.926 131.99 129.619 131.293C133.625 127.263 137.657 123.258 141.683 119.246C142.288 118.644 142.875 118.02 143.518 117.459C144.476 116.623 145.625 116.638 146.329 117.438C147.077 118.288 146.973 119.304 145.972 120.208C140.558 125.102 135.604 130.461 130.395 135.561C129.198 136.732 128.28 136.778 127.104 135.617C124.929 133.472 122.77 131.31 120.609 129.151C120.401 128.943 120.197 128.72 120.041 128.472C119.559 127.71 119.451 126.927 120.116 126.214C120.786 125.494 121.586 125.582 122.364 126.007C122.703 126.192 122.975 126.497 123.328 126.8Z" fill="#CD464B"/>
</svg>
