<svg width="202" height="202" viewBox="0 0 202 202" fill="none" xmlns="http://www.w3.org/2000/svg">
<path d="M61.4757 107.441C63.3704 104.357 65.1331 101.271 67.113 98.3308C69.0369 95.4738 71.453 93.151 75.0317 92.4172C81.0981 91.1733 86.9299 95.9563 85.1983 102.869C84.5357 105.514 83.1544 107.836 81.9391 110.234C80.2318 113.603 78.4116 116.922 77.214 120.524C76.4644 122.778 76.0776 125.103 76.0187 127.474C75.8713 133.41 75.0151 139.173 72.0517 144.449C71.8793 144.757 71.6647 145.067 71.71 145.455C71.9382 145.809 72.3003 145.703 72.6103 145.703C93.3882 145.705 114.166 145.694 134.944 145.704C136.814 145.705 138.683 145.87 140.553 145.89C141.785 145.903 142.968 145.625 143.966 144.835C145.092 143.945 145.641 142.755 145.708 141.337C145.736 140.747 145.686 140.151 145.734 139.563C145.824 138.454 146.562 137.789 147.603 137.824C148.618 137.858 149.211 138.5 149.194 139.664C149.149 142.633 148.64 145.433 146.133 147.437C144.611 148.653 142.853 149.202 140.921 149.202C117.349 149.204 93.7764 149.199 70.2038 149.215C69.6501 149.215 68.8328 148.867 68.6456 150.01C69.5993 150.09 70.5012 150.148 71.3992 150.244C73.1652 150.431 74.4245 151.765 74.4294 153.542C74.4476 160.216 74.448 166.89 74.4297 173.564C74.4245 175.49 72.8943 177.015 70.985 177.016C57.7357 177.025 44.4865 177.024 31.2372 177.015C29.3895 177.014 27.9857 175.651 27.9509 173.808C27.8254 167.172 27.6884 160.535 27.7477 153.897C27.7638 152.105 28.9305 150.059 31.4516 150.227C32.1331 150.272 32.8279 150.095 33.5123 150.123C34.5173 150.165 34.7055 149.663 34.6623 148.785C34.4524 144.522 34.2832 140.258 34.0986 135.994C33.9679 132.976 33.8261 129.958 33.706 126.94C33.4881 121.461 33.2027 115.983 33.0947 110.501C32.989 105.14 34.9878 100.731 39.1738 97.2168C43.0535 93.96 46.9871 90.7835 51.0916 87.8219C52.0716 87.1148 52.4348 86.3469 52.4319 85.1279C52.3907 67.802 52.4032 50.476 52.4044 33.15C52.4047 28.5303 55.7473 25.1793 60.3487 25.1793C81.7842 25.1793 103.22 25.1916 124.655 25.1638C127.345 25.1603 129.561 26.0197 131.437 27.9625C136.459 33.1654 141.525 38.3271 146.582 43.4966C148.367 45.3207 149.252 47.4327 149.228 50.0421C149.155 57.9976 149.202 65.9541 149.199 73.9103C149.199 75.3502 148.637 76.0234 147.463 76.0143C146.343 76.0057 145.718 75.2508 145.717 73.8616C145.712 68.7 145.624 63.536 145.757 58.3778C145.819 55.984 145.885 53.5899 145.904 51.1951C145.913 50.0275 145.797 49.9115 144.598 49.9079C140.883 49.8967 137.168 49.9032 133.453 49.8955C131.616 49.8916 129.849 49.6098 128.312 48.5038C126.307 47.0615 125.258 45.0699 125.213 42.6312C125.147 39.0489 125.186 35.4644 125.206 31.8809C125.21 31.0959 125.322 30.3112 125.391 29.5269C125.44 28.959 125.18 28.6551 124.621 28.6071C124.065 28.5595 123.509 28.4886 122.952 28.4884C102.109 28.4821 81.2649 28.488 60.4211 28.4765C57.4812 28.4749 55.3821 31.03 55.7827 34.0602C55.8555 34.6111 55.8903 35.1711 55.8904 35.727C55.8955 61.5023 55.8941 87.2775 55.901 113.053C55.9011 113.497 55.7822 113.965 56.0912 114.53C58.2551 112.418 59.7377 109.874 61.4757 107.441ZM61.5174 113.288C59.7479 115.53 58.0506 117.833 56.1176 119.94C55.0742 121.078 53.9942 122.185 52.8818 123.255C52.1133 123.995 50.9433 123.97 50.3071 123.297C49.6192 122.57 49.6664 121.572 50.4442 120.737C50.8022 120.353 51.193 119.999 51.5531 119.617C51.8912 119.257 52.2017 118.892 52.2169 118.342C52.2467 117.26 52.3641 116.179 52.3675 115.097C52.3906 107.571 52.396 100.044 52.3963 92.5176C52.3963 92.1796 52.5392 91.7916 52.1913 91.4879C51.5748 91.6603 51.094 92.0691 50.599 92.435C47.6665 94.6031 44.7943 96.849 42.0092 99.2042C40.5288 100.456 39.0208 101.694 38.0156 103.391C36.8295 105.394 36.3873 107.632 36.3919 109.905C36.401 114.398 36.6671 118.887 36.9135 123.375C37.1724 128.091 37.3412 132.812 37.5322 137.531C37.6849 141.302 37.8257 145.073 37.9402 148.845C37.968 149.76 38.3111 150.077 39.2569 150.073C46.7507 150.038 54.2448 150.054 61.7388 150.054C62.5605 150.054 63.3823 150.045 64.2038 150.055C64.6342 150.061 64.9928 149.988 65.1037 149.494C65.4164 148.102 66.348 147.05 67.0971 145.9C68.9681 143.028 70.6658 140.074 71.5437 136.723C72.4222 133.369 72.4861 129.92 72.7227 126.492C72.906 123.835 73.2583 121.208 74.2198 118.708C75.8263 114.53 77.9233 110.582 79.9583 106.605C80.7788 105.002 81.686 103.44 82.0661 101.639C82.807 98.1287 79.7798 95.1198 76.2816 95.8523C73.2121 96.495 71.0348 98.2308 69.4722 100.902C67.0165 105.099 64.4365 109.219 61.5174 113.288ZM67.1687 173.723C67.9572 173.724 68.7457 173.725 69.5342 173.724C71.1423 173.723 71.1449 173.723 71.1452 172.156C71.1461 166.472 71.1457 160.788 71.1443 155.104C71.1439 153.459 71.039 153.35 69.4279 153.35C57.1733 153.349 44.9186 153.35 32.664 153.351C31.2412 153.352 31.2197 153.367 31.2348 154.776C31.2977 160.622 31.3694 166.468 31.4323 172.315C31.4474 173.718 31.4376 173.721 32.8688 173.722C44.2363 173.723 55.6039 173.723 67.1687 173.723ZM143.676 46.5024C143.978 46.4691 144.115 46.3164 143.924 46.047C143.697 45.7269 143.445 45.4185 143.17 45.1386C138.635 40.5196 134.095 35.9045 129.549 31.2956C129.357 31.1017 129.218 30.7865 128.8 30.8418C128.623 31.4886 128.48 32.1421 128.483 32.8366C128.497 35.893 128.485 38.9495 128.489 42.006C128.492 44.7614 130.192 46.4766 132.975 46.4947C136.492 46.5177 140.008 46.5095 143.676 46.5024Z" fill="#CD464B"/>
<path d="M138.935 135.317C127.207 131.882 120.179 124.173 117.708 112.343C116.078 104.534 117.769 97.2489 121.94 90.5885C124.682 86.2105 128.659 83.0658 133.312 80.8148C138.046 78.5241 143.059 77.3698 148.294 77.8878C160.26 79.0716 168.701 85.2345 173.422 96.3256C175.145 100.374 175.778 104.676 175.402 109.046C174.748 116.625 171.742 123.144 166.163 128.403C161.746 132.567 156.47 134.978 150.523 135.938C146.657 136.563 142.809 136.309 138.935 135.317ZM172.144 104.324C171.724 100.555 170.554 97.0448 168.625 93.7692C162.235 82.9204 148.527 78.215 136.846 82.8996C133.816 84.115 131.089 85.854 128.723 88.0816C126.487 90.1871 124.131 92.2626 123.466 95.5081C123.437 95.6474 123.29 95.8227 123.158 95.8694C122.715 96.0263 122.618 96.423 122.469 96.7773C120.518 101.427 119.944 106.224 120.761 111.218C123.088 125.447 136.557 135.122 150.736 132.502C160.049 130.781 166.465 125.348 170.254 116.743C171.972 112.843 172.405 108.725 172.144 104.324Z" fill="#CD464B"/>
<path d="M104.551 61.4253C92.8526 61.4249 81.2531 61.4261 69.6536 61.4219C68.1315 61.4213 67.3533 60.4681 67.7927 59.1833C67.9904 58.6052 68.3729 58.2264 68.9756 58.1301C69.4596 58.0527 69.9539 58.0028 70.4436 58.0026C90.7838 57.9954 111.124 57.9946 131.464 57.9981C131.922 57.9982 132.384 58.0329 132.837 58.0951C133.981 58.2519 134.517 58.8632 134.464 59.9107C134.418 60.8439 133.751 61.4165 132.646 61.418C126.501 61.426 120.356 61.4245 114.212 61.4256C111.024 61.4262 107.837 61.4254 104.551 61.4253Z" fill="#CD464B"/>
<path d="M114.809 71.1891C120.43 71.1878 125.954 71.1821 131.477 71.1921C132.031 71.1931 132.594 71.2449 133.138 71.3513C134.049 71.5296 134.455 72.1338 134.415 73.055C134.376 73.952 133.87 74.5075 132.957 74.6096C132.665 74.6423 132.366 74.6231 132.07 74.6231C111.523 74.6237 90.9754 74.6239 70.4279 74.6239C68.5488 74.6239 67.7088 74.1252 67.6774 72.9926C67.6435 71.7724 68.5033 71.1967 70.426 71.196C84.7928 71.1908 99.1596 71.1912 113.526 71.1898C113.921 71.1898 114.315 71.1893 114.809 71.1891Z" fill="#CD464B"/>
<path d="M70.6292 44.9036C84.561 44.9037 98.3954 44.9031 112.23 44.9055C113.596 44.9058 114.234 45.4032 114.282 46.4776C114.328 47.5053 113.712 48.2449 112.691 48.3712C112.464 48.3993 112.232 48.3886 112.002 48.3886C97.9046 48.3905 83.8073 48.3923 69.71 48.3917C68.2096 48.3916 67.378 47.3911 67.7562 46.073C67.974 45.3141 68.4466 44.9055 69.2503 44.9076C69.6775 44.9087 70.1047 44.9051 70.6292 44.9036Z" fill="#CD464B"/>
<path d="M91.7285 87.4632C84.5644 87.4633 77.499 87.4635 70.4336 87.463C70.0721 87.463 69.7095 87.4748 69.3494 87.4516C68.4243 87.3923 67.7516 86.7185 67.6949 85.8156C67.6396 84.9341 68.2558 84.1563 69.1674 83.997C69.4555 83.9467 69.757 83.9657 70.0524 83.9657C78.6624 83.9647 87.2723 83.9652 95.8823 83.9665C96.1779 83.9665 96.4773 83.9481 96.7684 83.9871C97.6437 84.1045 98.3229 84.9167 98.288 85.7736C98.2521 86.6539 97.5535 87.4205 96.6576 87.4423C95.0482 87.4815 93.4374 87.4595 91.7285 87.4632Z" fill="#CD464B"/>
<path d="M39.3461 165.519C37.4678 165.61 36.3397 164.721 36.1766 163.104C36.0346 161.696 36.9069 160.554 38.3322 160.282C39.7233 160.017 41.0159 160.848 41.3988 162.253C41.7787 163.647 41.0183 164.899 39.3461 165.519Z" fill="#CD464B"/>
<path d="M156.089 98.4909C156.837 97.7024 157.526 96.9521 158.242 96.229C159.216 95.2464 160.282 95.1632 161.107 95.9761C161.892 96.7489 161.83 97.9519 160.945 98.8607C155.285 104.674 149.624 110.486 143.959 116.296C142.948 117.333 141.652 117.398 140.671 116.405C137.76 113.463 134.862 110.508 131.983 107.533C130.893 106.407 131.156 104.885 132.472 104.399C133.386 104.061 134.043 104.502 134.653 105.125C136.859 107.379 139.074 109.624 141.288 111.87C142.18 112.774 142.252 112.784 143.157 111.851C147.457 107.419 151.748 102.979 156.089 98.4909Z" fill="#CD464B"/>
</svg>
