<svg width="128" height="128" viewBox="0 0 128 128" fill="none" xmlns="http://www.w3.org/2000/svg">
<path d="M90.101 19.989C95.7166 22.991 94.7731 21.6416 93.3811 27.2082C92.7452 29.7512 93.4083 30.9461 95.2379 32.6627C97.901 35.1613 100.028 35.2915 103.029 33.4196C106.075 31.5189 106.262 31.7442 108.636 34.5927C109.953 36.1723 111.111 37.8858 112.397 39.4927C113.111 40.3847 112.966 41.0544 112.253 41.8756C111.103 43.2001 110.09 44.6454 108.974 46.001C108.312 46.8043 108.172 47.5808 108.72 48.4974C109.061 49.0683 109.443 49.659 109.596 50.2928C110.443 53.8062 112.717 54.4557 116.013 54.2515C120.297 53.9861 119.421 53.5043 120.627 57.742C121.206 59.7781 121.451 61.909 121.931 63.9771C122.177 65.0389 121.752 65.5589 120.863 65.9572C119.433 66.5984 118.063 67.3921 116.602 67.9444C115.196 68.4757 114.694 69.3064 114.768 70.834C114.942 74.4143 114.872 74.4162 111.401 74.4122C106.328 74.4063 101.813 75.9175 98.027 79.4261C97.7308 79.7006 97.4516 80.0796 96.6957 79.8801C99.0561 65.1745 94.4033 53.2302 82.1041 44.7648C75.2092 40.0192 67.3842 38.5514 59.1524 39.8334C43.1512 42.3255 28.0254 58.2836 31.9533 79.8666C31.3812 80.2398 31.071 79.7416 30.7464 79.4502C26.5094 75.6475 21.5187 74.0486 15.9288 74.482C14.1265 74.6218 13.5483 73.9203 13.8882 72.3575C14.5112 69.4927 13.2199 68.1939 10.676 67.1785C6.62547 65.5618 6.68937 65.3852 7.31759 61.1384C7.60297 59.2093 8.1827 57.3545 8.71227 55.4843C8.99828 54.4743 9.57096 54.132 10.5499 54.1534C12.2958 54.1915 14.0442 54.1303 15.7894 54.1832C16.8295 54.2148 17.5096 53.8408 17.8897 52.8481C18.1498 52.1688 18.3738 51.4264 18.8136 50.8747C20.9743 48.1643 20.1373 46.0771 18.0071 43.6837C14.7819 40.0598 15.1716 41.2867 17.7983 37.4482C18.8891 35.854 20.2589 34.4576 21.4451 32.9264C22.2341 31.908 23.018 31.8934 24.0909 32.5055C25.6079 33.3709 27.2294 34.0472 28.7772 34.8607C29.6553 35.3222 30.3335 35.1966 31.0582 34.5282C32.0352 33.6274 33.0102 32.6697 34.1414 32.0071C35.8265 31.02 36.0525 29.7558 35.492 28.0312C35.0431 26.6497 34.8054 25.1995 34.426 23.793C34.162 22.8141 34.4514 22.1842 35.3395 21.7028C37.8886 20.3212 40.4742 19.0267 43.1579 17.9282C44.0516 17.5624 44.6054 17.8018 45.1493 18.5547C46.2141 20.0285 47.3861 21.4234 48.4442 22.9018C49.0661 23.7706 49.7763 24.0201 50.7787 23.7187C51.8729 23.3897 52.9848 22.9404 54.1009 22.9025C56.5566 22.819 57.1542 21.3623 57.6691 19.2262C59.1481 13.0901 57.5138 14.1794 64.0039 14.007C65.3877 13.9702 66.7775 14.0948 68.1583 14.0226C69.6123 13.9466 70.1872 14.6681 70.4162 16.0093C70.7019 17.6832 71.1933 19.3232 71.4415 21.0012C71.5987 22.0634 72.1685 22.4152 73.0828 22.5958C74.676 22.9103 76.2786 23.2085 77.8378 23.6543C78.9433 23.9704 79.6685 23.6796 80.3235 22.7837C81.3606 21.3653 82.4972 20.0206 83.5205 18.5925C84.1252 17.7487 84.7753 17.5894 85.6853 18.0153C87.1046 18.6797 88.5478 19.2921 90.101 19.989Z" fill="#3B2E63"/>
<path d="M113.805 112.86C108.484 113.218 103.729 112.223 99.6261 108.898C98.2917 107.817 97.0938 106.601 96.2366 105.146C95.4501 103.811 94.3878 103.376 92.9285 103.393C90.1939 103.425 87.4584 103.377 84.7232 103.377C68.859 103.371 52.9946 103.412 37.1309 103.319C34.8864 103.306 33.4971 103.976 32.1689 105.807C24.9131 115.81 8.35614 115.264 1.75114 104.893C1.43558 104.398 0.979331 103.948 1.02555 103.248C1.52346 102.618 2.24656 102.887 2.86563 102.88C6.45146 102.843 10.0379 102.827 13.6238 102.848C15.5426 102.859 16.8254 102.274 17.7318 100.346C20.4168 94.6335 20.4621 94.7017 17.7533 88.7663C16.9433 86.9912 15.9116 86.2581 13.8779 86.353C10.118 86.5283 6.34311 86.4179 2.57503 86.3758C0.807675 86.3561 0.623511 85.9554 1.54677 84.4521C6.87116 75.7829 18.0296 73.7564 26.7144 78.4937C29.3597 79.9365 31.5412 81.9376 33.1618 84.4811C33.7851 85.4594 34.589 85.8359 35.7339 85.8327C53.9067 85.7815 72.0796 85.752 90.2525 85.7215C90.7376 85.7207 91.2241 85.7478 91.7077 85.7881C93.7106 85.9551 95.1173 85.3894 96.4339 83.5924C104.118 73.1037 121.068 73.639 127.438 84.4522C127.707 84.9088 128.086 85.3289 127.983 85.9181C127.32 86.6074 126.483 86.393 125.726 86.3972C122.019 86.4178 118.31 86.4588 114.604 86.3671C113.073 86.3292 112.195 86.807 111.497 88.2249C108.194 94.9397 108.171 94.9093 111.762 101.44C112.44 102.672 113.497 102.83 114.682 102.835C118.268 102.85 121.854 102.836 125.44 102.86C126.213 102.865 127.016 102.708 127.754 103.078C127.484 106.554 121.147 112.219 113.805 112.86Z" fill="#CD4550"/>
<rect x="32" y="93" width="65" height="4" rx="2" fill="#3B2E63"/>
</svg>
