<svg width="163" height="87" viewBox="0 0 163 87" fill="none" xmlns="http://www.w3.org/2000/svg">
<path d="M14.3279 32.5353C14.3279 35.9404 15.2294 37.8892 16.6461 37.8892C18.1701 37.8892 18.857 35.6191 18.857 31.8286C18.857 28.5735 18.3419 26.6461 16.9037 26.6461C15.6373 26.6461 14.3494 28.2094 14.3279 30.4152V32.5353ZM12.6107 37.1182C11.8594 37.1182 11.2369 37.4609 10.2925 38.1462V22.0204C10.2925 21.2494 9.77732 20.7783 9.02605 20.7783V20.5213L14.3279 19.2578V28.1238C15.1221 26.4748 16.7749 25.3183 18.6853 25.3183C21.948 25.3183 22.9139 28.6591 22.9139 31.4217C22.9139 35.2765 21.0465 38.4031 16.9896 38.4031C14.3923 38.4031 14.0918 37.1182 12.6107 37.1182ZM27.8159 31.229C27.8159 31.6787 27.8159 32.107 27.8588 32.5353C31.8513 30.2439 31.1644 25.8109 29.6618 25.8109C28.6101 25.8109 27.8159 27.8668 27.8159 31.229ZM34.1695 33.6918H34.6847C34.0407 37.2895 31.5722 38.4031 29.4901 38.4031C26.3133 38.4031 23.7804 35.8761 23.7804 31.85C23.7804 27.8239 26.3133 25.3183 29.855 25.3183C32.6884 25.3183 34.5344 26.9031 34.5344 28.9161C34.5129 31.2504 31.9801 33.0921 27.8588 32.6638C28.0949 35.2337 28.975 36.8826 30.9712 36.8826C32.6884 36.8826 33.8905 35.662 34.1695 33.6918ZM42.2381 30.094C40.3063 30.972 39.1686 32.4497 39.1686 34.8482C39.1686 36.6685 39.8341 37.675 40.757 37.675C41.401 37.675 42.1523 37.2253 42.2381 35.7048V30.972C42.2381 30.6722 42.2381 30.3724 42.2381 30.094ZM39.4691 38.4246C36.9363 38.4246 35.3908 37.161 35.3908 35.2337C35.3908 32.4925 38.5032 30.8435 42.1952 29.7299C42.1523 27.3742 41.8303 25.8109 40.6283 25.8109C39.4691 25.8109 38.8681 27.3742 39.6838 29.7299C38.6105 30.5865 36.4211 30.1368 36.4211 28.2308C36.3996 26.5604 38.031 25.3183 40.9073 25.3183C44.4705 25.3183 46.2736 27.2243 46.2736 30.972V36.6685C46.2736 37.3966 46.7673 37.8892 47.4971 37.8892H47.5185V38.1462H43.4616C42.8606 38.1462 42.4313 37.8249 42.2811 37.2895C41.7659 38.0605 40.8429 38.4246 39.4691 38.4246ZM58.1709 33.6918H58.686C58.0421 37.2895 55.5736 38.4031 53.4915 38.4031C50.3147 38.4031 47.7818 35.8761 47.7818 31.85C47.7818 27.8239 50.3147 25.3183 54.0496 25.3183C56.883 25.3183 58.5358 26.796 58.5358 28.6806C58.5143 31.0148 55.917 31.5502 54.6721 30.5437C55.5951 27.6526 55.2087 25.8109 53.9423 25.8109C52.6114 25.8109 51.8172 27.8668 51.8172 31.229C51.8172 34.5698 52.6329 36.8826 54.9726 36.8826C56.6898 36.8826 57.8918 35.662 58.1709 33.6918ZM68.6733 36.6685V31.5502C68.6733 28.5092 68.4587 26.6461 66.913 26.6461C65.5178 26.6461 64.1441 28.188 64.187 30.4366H64.1655V36.6685C64.1655 37.418 64.6592 37.8892 65.389 37.8892H65.432V38.1462H58.8637V37.8892H58.8851C59.6149 37.8892 60.1301 37.418 60.1301 36.6685V22.0204C60.1301 21.2708 59.6149 20.7783 58.8851 20.7783H58.8637V20.5213L64.1655 19.2578V28.1452C65.0027 26.3891 66.8272 25.3183 68.9309 25.3183C71.614 25.3183 72.7087 27.053 72.7087 29.7942V36.6685C72.7087 37.418 73.2239 37.8892 73.9537 37.8892H73.9752V38.1462H67.4069V37.8892H67.4498C68.1796 37.8892 68.6733 37.418 68.6733 36.6685ZM74.7929 28.5949C74.7929 26.6461 76.6603 25.3183 79.5796 25.3183C82.9066 25.3183 84.0013 27.0744 84.0013 28.3807C83.9799 30.2225 81.8763 30.6508 80.846 29.8156C81.6187 27.567 81.2968 25.8109 79.7083 25.8109C78.8068 25.8109 78.2487 26.3891 78.2487 27.1172C78.2487 29.4515 84.0013 31.3146 84.0013 34.9338C84.0013 36.4758 82.9496 38.4031 79.2361 38.4031C75.8232 38.4031 74.2133 36.797 74.2348 34.9981C74.2348 32.8351 76.6388 32.364 77.8194 33.2849C76.9394 35.9404 77.3043 37.8892 79.1288 37.8892C80.0303 37.8892 80.5455 37.3966 80.5455 36.5828C80.5455 33.8631 74.7929 32.0214 74.7929 28.5949ZM91.2793 37.8892H91.3223V38.1462H84.754V37.8892H84.7754C85.5052 37.8892 86.0204 37.418 86.0204 36.6685V28.2951C86.0204 27.567 85.5052 27.0744 84.7754 27.0744H84.754V26.8174L90.0558 25.5539V36.6685C90.0558 37.418 90.5495 37.8892 91.2793 37.8892ZM85.634 21.3993C85.634 19.9645 86.6 19.0222 88.0596 19.0222C89.4977 19.0222 90.4637 19.9645 90.4637 21.3993C90.4637 22.8556 89.4977 23.8193 88.0596 23.8193C86.6 23.8193 85.634 22.8556 85.634 21.3993ZM97.7356 37.8892C99.1308 37.8892 100.054 35.9404 100.054 32.5353V30.4152C100.011 28.2094 98.7445 26.6461 97.478 26.6461C96.0399 26.6461 95.5033 28.5735 95.5033 31.8286C95.5033 35.6191 96.2116 37.8892 97.7356 37.8892ZM100.204 37.5465C99.646 38.1247 98.8089 38.4031 97.5639 38.4031C93.829 38.4031 91.4678 35.8761 91.4678 31.3789C91.4678 27.8025 92.9489 25.3183 95.7394 25.3183C97.6068 25.3183 99.2382 26.4319 100.054 28.1238V22.0204C100.054 21.2708 99.5387 20.7783 98.8089 20.7783H98.7874V20.5213L104.089 19.2578V36.6685C104.089 37.418 104.583 37.8892 105.313 37.8892H105.356V38.1462H101.299C100.805 38.1462 100.397 37.9106 100.204 37.5465ZM109.672 31.229C109.672 31.6787 109.672 32.107 109.715 32.5353C113.708 30.2439 113.021 25.8109 111.518 25.8109C110.466 25.8109 109.672 27.8668 109.672 31.229ZM116.026 33.6918H116.541C115.897 37.2895 113.429 38.4031 111.346 38.4031C108.17 38.4031 105.637 35.8761 105.637 31.85C105.637 27.8239 108.17 25.3183 111.711 25.3183C114.545 25.3183 116.391 26.9031 116.391 28.9161C116.369 31.2504 113.836 33.0921 109.715 32.6638C109.951 35.2337 110.831 36.8826 112.828 36.8826C114.545 36.8826 115.747 35.662 116.026 33.6918Z" fill="#221407"/>
<path d="M132.404 9.19615C131.974 8.27442 130.986 7.26689 129.267 6.58093V3.12968L128.455 6.35768C127.832 6.16475 124.739 5.4448 124.095 5.31618L125.399 1.92925L123.294 5.31618C122.929 5.27331 121.661 5.33762 121.231 5.31618L122.177 1.92925L120.405 5.35383C118.557 5.3967 115.751 6.45231 114.033 6.98822C114.849 4.39442 119.942 1.0718 120.694 0.921745C128.365 -1.41481 135.476 5.209 135.605 6.98822C138.184 -0.214382 149.979 0.214344 155.501 6.58093C151.183 5.46624 139.086 5.98071 138.227 9.90352C140.934 9.30336 151.269 3.12968 156.919 20.3002C145.682 13.6763 140.568 11.2326 139.323 12.1115C147.724 15.0697 144.823 23.2798 144.823 23.2798C144.823 23.2798 141.879 16.3987 138.355 15.7771L137.754 15.82C141.106 28.8533 142.588 39.8286 138.57 53.1191H131.953C137.131 40.9004 136.314 29.3249 133.586 16.0129L133.027 16.0558C131.115 17.1061 127.333 23.2584 126.624 25.2519C125.271 20.4074 126.731 16.0987 130.728 13.0118C130.126 12.6689 127.74 12.7546 126.107 13.0118L127.784 10.3731L125.077 13.3333H125.12C124.497 13.462 123.874 13.612 123.229 13.7835V11.0423L122.753 13.7835C122.259 13.9336 120.264 14.6195 119.813 14.7696V12.1115L118.728 15.0577C117.246 15.5722 112.893 18.773 112.356 19.0731C112.635 15.5361 119.727 4.50161 132.404 9.19615Z" fill="#221407"/>
<path fill-rule="evenodd" clip-rule="evenodd" d="M159.646 45.5077H0V80.3077C0 84.0039 3.00319 87 6.70782 87H152.938C156.643 87 159.646 84.0039 159.646 80.3077V45.5077ZM105.666 73.7439H105.709V74.0009H99.1402V73.7439H99.1617C99.8915 73.7439 100.407 73.2727 100.407 72.5232V64.1498C100.407 63.4217 99.8915 62.9291 99.1617 62.9291H99.1402V62.6721L104.442 61.4086V72.5232C104.442 73.2727 104.936 73.7439 105.666 73.7439ZM100.02 57.254C100.02 55.8192 100.986 54.8769 102.446 54.8769C103.884 54.8769 104.85 55.8192 104.85 57.254C104.85 58.7103 103.884 59.674 102.446 59.674C100.986 59.674 100.02 58.7103 100.02 57.254ZM111.861 70.7243C110.68 70.7243 109.886 68.8398 109.886 66.2271C109.886 63.5287 110.723 61.6656 111.925 61.6656C113.127 61.6656 113.922 63.5073 113.922 66.0986C113.922 68.8398 113.042 70.7243 111.861 70.7243ZM111.904 61.173C108.384 61.173 105.851 63.2075 105.851 66.2271C105.851 67.9403 106.666 69.3537 107.997 70.2103C107.289 70.6172 106.709 71.3239 107.031 72.2662C107.457 73.4922 109.017 73.9567 110.602 74.4285C112.533 75.0034 114.501 75.5896 114.501 77.5772C114.501 78.8193 113.728 80.04 111.839 80.04C109.006 80.04 108.62 77.3202 109.5 74.6862C108.319 73.7439 105.937 74.2578 105.937 76.3994C105.894 78.1769 107.525 80.554 112.076 80.554C116.09 80.554 118.472 78.7122 118.472 76.1424C118.472 73.4226 115.811 72.2234 111.732 71.7308C108.899 71.4096 108.448 70.9385 108.577 70.5316C109.478 70.9813 110.616 71.2383 111.904 71.2383C115.531 71.2383 117.957 69.2252 117.957 66.2485C117.957 63.9356 116.476 62.1367 114.093 61.4729C113.6 60.552 113.428 59.7382 113.728 59.2028C114.201 58.4533 115.489 59.0315 116.691 60.4878C117.742 60.1237 118.365 58.4533 116.97 57.5538C115.832 56.8686 114.136 57.0827 113.363 58.3034C112.87 59.0743 112.913 60.1451 113.449 61.323C112.956 61.2159 112.441 61.173 111.904 61.173ZM125.055 73.7439H125.098V74.0009H118.53V73.7439H118.551C119.281 73.7439 119.796 73.2727 119.796 72.5232V64.1498C119.796 63.4217 119.281 62.9291 118.551 62.9291H118.53V62.6721L123.832 61.4086V63.9999C124.669 62.2438 126.493 61.173 128.597 61.173C131.28 61.173 132.375 62.9077 132.375 65.6489V72.5232C132.375 73.2727 132.89 73.7439 133.62 73.7439H133.641V74.0009H127.073V73.7439H127.116C127.846 73.7439 128.339 73.2727 128.339 72.5232V67.4049C128.339 64.3639 128.125 62.5008 126.579 62.5008C125.184 62.5008 123.81 64.0427 123.853 66.2913H123.832V72.5232C123.832 73.2727 124.325 73.7439 125.055 73.7439ZM139.244 61.173C136.324 61.173 134.457 62.5008 134.457 64.4496C134.457 66.2617 136.065 67.6305 137.581 68.9201C138.932 70.0698 140.21 71.156 140.21 72.4375C140.21 73.2513 139.694 73.7439 138.793 73.7439C136.968 73.7439 136.603 71.7951 137.483 69.1396C136.303 68.2187 133.899 68.6898 133.899 70.8528C133.877 72.6517 135.487 74.2578 138.9 74.2578C142.614 74.2578 143.665 72.3305 143.665 70.7886C143.665 68.7815 141.896 67.3146 140.32 66.0074C139.054 64.9578 137.913 64.0116 137.913 62.9719C137.913 62.2438 138.471 61.6656 139.372 61.6656C140.961 61.6656 141.283 63.4217 140.51 65.6703C141.54 66.5055 143.644 66.0772 143.665 64.2354C143.665 62.9291 142.571 61.173 139.244 61.173ZM146.994 69.4394C145.534 69.4394 144.568 70.4031 144.568 71.8379C144.568 73.2942 145.534 74.2578 146.994 74.2578C148.432 74.2578 149.398 73.2942 149.398 71.8379C149.398 70.4031 148.432 69.4394 146.994 69.4394ZM93.9651 61.173C91.0459 61.173 89.1785 62.5008 89.1785 64.4496C89.1785 66.2617 90.7877 67.6305 92.3036 68.9201C93.6546 70.0698 94.9311 71.156 94.9311 72.4375C94.9311 73.2513 94.4159 73.7439 93.5144 73.7439C91.6899 73.7439 91.325 71.7951 92.205 69.1396C91.0244 68.2187 88.6204 68.6898 88.6204 70.8528C88.5989 72.6517 90.2088 74.2578 93.6217 74.2578C97.3352 74.2578 98.3869 72.3305 98.3869 70.7886C98.3869 68.7815 96.6181 67.3146 95.0418 66.0074C93.776 64.9578 92.6343 64.0116 92.6343 62.9719C92.6343 62.2438 93.1924 61.6656 94.0939 61.6656C95.6823 61.6656 96.0043 63.4217 95.2316 65.6703C96.2619 66.5055 98.3655 66.0772 98.3869 64.2354C98.3869 62.9291 97.2922 61.173 93.9651 61.173ZM80.9815 67.0837C80.9815 67.5334 80.9815 67.9617 81.0244 68.39C85.0169 66.0986 84.33 61.6656 82.8275 61.6656C81.7757 61.6656 80.9815 63.7215 80.9815 67.0837ZM87.3351 69.5465H87.8503C87.2063 73.1442 84.7379 74.2578 82.6558 74.2578C79.4789 74.2578 76.9461 71.7308 76.9461 67.7047C76.9461 63.6786 79.4789 61.173 83.0207 61.173C85.8541 61.173 87.7 62.7578 87.7 64.7708C87.6786 67.1051 85.1457 68.9468 81.0244 68.5185C81.2605 71.0884 82.1406 72.7374 84.1369 72.7374C85.8541 72.7374 87.0561 71.5167 87.3351 69.5465ZM71.3625 68.39C71.3625 71.7951 70.4395 73.7439 69.0443 73.7439C67.5202 73.7439 66.8121 71.4738 66.8121 67.6833C66.8121 64.4282 67.3485 62.5008 68.7867 62.5008C70.0531 62.5008 71.3196 64.0641 71.3625 66.2699V68.39ZM68.8725 74.2578C70.1175 74.2578 70.9546 73.9794 71.5127 73.4012C71.7059 73.7653 72.1138 74.0009 72.6075 74.0009H76.6643V73.7439H76.6214C75.8916 73.7439 75.3979 73.2727 75.3979 72.5232V55.1125L70.096 56.376V56.633H70.1175C70.8473 56.633 71.3625 57.1255 71.3625 57.8751V63.9785C70.5468 62.2866 68.9155 61.173 67.0482 61.173C64.2577 61.173 62.7766 63.6572 62.7766 67.2336C62.7766 71.7308 65.1378 74.2578 68.8725 74.2578ZM48.1455 68.39C48.1455 71.7951 49.047 73.7439 50.4637 73.7439C51.9878 73.7439 52.6746 71.4738 52.6746 67.6833C52.6746 64.4282 52.1595 62.5008 50.7213 62.5008C49.4549 62.5008 48.167 64.0641 48.1455 66.2699V68.39ZM46.4283 72.9729C45.677 72.9729 45.0546 73.3156 44.1101 74.0009V57.8751C44.1101 57.1041 43.5949 56.633 42.8436 56.633V56.376L48.1455 55.1125V63.9785C48.9397 62.3295 50.5925 61.173 52.5029 61.173C55.7656 61.173 56.7315 64.5138 56.7315 67.2764C56.7315 71.1312 54.8641 74.2578 50.8072 74.2578C49.3274 74.2578 48.5932 73.8409 47.9614 73.4815C47.4843 73.2105 47.0656 72.9729 46.4283 72.9729ZM36.1028 68.39C36.0599 67.9617 36.0599 67.5334 36.0599 67.0837C36.0599 63.7215 36.8541 61.6656 37.9059 61.6656C39.4084 61.6656 40.0953 66.0986 36.1028 68.39ZM42.9287 69.5465H42.4135C42.1345 71.5167 40.9325 72.7374 39.2153 72.7374C37.219 72.7374 36.3389 71.0884 36.1028 68.5185C40.2241 68.9468 42.757 67.1051 42.7784 64.7708C42.7784 62.7578 40.9325 61.173 38.0991 61.173C34.5573 61.173 32.0245 63.6786 32.0245 67.7047C32.0245 71.7308 34.5573 74.2578 37.7342 74.2578C39.8163 74.2578 42.2848 73.1442 42.9287 69.5465ZM16.8071 62.822L19.7049 70.3602L21.508 65.9915L20.263 62.822C19.9839 62.1153 19.34 61.6656 18.5887 61.6656H18.5458V61.4086H25.4361V61.6656H25.4146C24.6848 61.6656 24.3628 62.1367 24.6418 62.822L27.5396 70.3602L30.6735 62.8006C30.9526 62.1153 30.6306 61.6656 29.9008 61.6656H29.8793V61.4086H32.9703V61.6656H32.9273C32.1761 61.6656 31.4892 62.1153 31.2101 62.8006L26.5522 74.0009H24.6418L21.787 66.6768L18.739 74.0009H16.8071L12.4497 62.822C12.1707 62.1153 11.5053 61.6656 10.754 61.6656H10.7325V61.4086H17.6228V61.6656H17.6013C16.8715 61.6656 16.5281 62.1367 16.8071 62.822Z" fill="#221407"/>
</svg>
